<?xml version="1.0" encoding="UTF-8"?> <svg xmlns="http://www.w3.org/2000/svg" width="59" height="59" viewBox="0 0 59 59" fill="none"><circle cx="29.5" cy="29.5" r="29.5" fill="#00B27B"></circle><g clip-path="url(#clip0_31_1574)"><path d="M29.657 41.703C29.3901 41.703 29.1736 41.4864 29.1736 41.2196V31.3037C29.1736 31.0369 29.3901 30.8203 29.657 30.8203C29.9238 30.8203 30.1404 31.0369 30.1404 31.3037V41.2196C30.1404 41.4864 29.9238 41.703 29.657 41.703Z" fill="white"></path><mask id="mask0_31_1574" style="mask-type:luminance" maskUnits="userSpaceOnUse" x="13" y="13" width="33" height="33"><path d="M46 13H13V46H46V13Z" fill="white"></path></mask><g mask="url(#mask0_31_1574)"><path d="M29.6567 44.8461C28.5231 44.8461 27.6008 43.9238 27.6008 42.7903C27.6008 41.6567 28.5231 40.7344 29.6567 40.7344C30.7903 40.7344 31.7126 41.6567 31.7126 42.7903C31.7126 43.9238 30.7903 44.8461 29.6567 44.8461ZM29.6567 41.7017C29.0563 41.7017 28.5676 42.1904 28.5676 42.7907C28.5676 43.3911 29.0559 43.8798 29.6567 43.8798C30.2576 43.8798 30.7458 43.3911 30.7458 42.7907C30.7458 42.1904 30.2571 41.7017 29.6567 41.7017Z" fill="white"></path><path d="M38.7817 39.2072H34.9861C34.7192 39.2072 34.5027 38.9907 34.5027 38.7238V31.3037C34.5027 31.0369 34.7192 30.8203 34.9861 30.8203C35.2529 30.8203 35.4695 31.0369 35.4695 31.3037V38.2404H38.7817C39.0485 38.2404 39.2651 38.457 39.2651 38.7238C39.2651 38.9907 39.0485 39.2072 38.7817 39.2072Z" fill="white"></path><path d="M40.0289 40.4523C39.0747 40.4523 38.2988 39.676 38.2988 38.7223C38.2988 37.7685 39.0752 36.9922 40.0289 36.9922C40.9826 36.9922 41.759 37.7685 41.759 38.7223C41.759 39.676 40.9826 40.4523 40.0289 40.4523ZM40.0289 37.9585C39.6079 37.9585 39.2656 38.3012 39.2656 38.7218C39.2656 39.1423 39.6083 39.4851 40.0289 39.4851C40.4495 39.4851 40.7922 39.1428 40.7922 38.7218C40.7922 38.3007 40.4495 37.9585 40.0289 37.9585Z" fill="white"></path><path d="M19.284 40.4523C18.3298 40.4523 17.554 39.676 17.554 38.7223C17.554 37.7685 18.3303 36.9922 19.284 36.9922C20.2378 36.9922 21.0146 37.7685 21.0146 38.7223C21.0146 39.676 20.2383 40.4523 19.284 40.4523ZM19.284 37.9585C18.863 37.9585 18.5207 38.3012 18.5207 38.7218C18.5207 39.1423 18.8635 39.4851 19.284 39.4851C19.7046 39.4851 20.0478 39.1428 20.0478 38.7218C20.0478 38.3007 19.7051 37.9585 19.284 37.9585Z" fill="white"></path><path d="M43.681 35.5271C42.8486 35.5271 42.1714 34.8499 42.1714 34.0175C42.1714 33.1851 42.8486 32.5078 43.681 32.5078C44.5134 32.5078 45.1907 33.1851 45.1907 34.0175C45.1907 34.8499 44.5134 35.5271 43.681 35.5271ZM43.681 33.4751C43.3818 33.4751 43.1382 33.7187 43.1382 34.0179C43.1382 34.3172 43.3818 34.5608 43.681 34.5608C43.9803 34.5608 44.2239 34.3172 44.2239 34.0179C44.2239 33.7187 43.9803 33.4751 43.681 33.4751Z" fill="white"></path><path d="M15.6635 35.5271C14.831 35.5271 14.1538 34.8499 14.1538 34.0175C14.1538 33.1851 14.831 32.5078 15.6635 32.5078C16.4959 32.5078 17.1731 33.1851 17.1731 34.0175C17.1731 34.8499 16.4959 35.5271 15.6635 35.5271ZM15.6635 33.4751C15.3642 33.4751 15.1206 33.7187 15.1206 34.0179C15.1206 34.3172 15.3642 34.5608 15.6635 34.5608C15.9627 34.5608 16.2063 34.3172 16.2063 34.0179C16.2063 33.7187 15.9627 33.4751 15.6635 33.4751Z" fill="white"></path><path d="M24.3269 39.2072H20.5312C20.2644 39.2072 20.0479 38.9907 20.0479 38.7238C20.0479 38.457 20.2644 38.2404 20.5312 38.2404H23.8435V31.3037C23.8435 31.0369 24.06 30.8203 24.3269 30.8203C24.5937 30.8203 24.8103 31.0369 24.8103 31.3037V38.7238C24.8103 38.9907 24.5937 39.2072 24.3269 39.2072Z" fill="white"></path><path d="M42.6552 34.5014H40.3542C40.0874 34.5014 39.8708 34.2848 39.8708 34.018V31.3037C39.8708 31.0369 40.0874 30.8203 40.3542 30.8203C40.6211 30.8203 40.8376 31.0369 40.8376 31.3037V33.5346H42.6552C42.922 33.5346 43.1386 33.7511 43.1386 34.018C43.1386 34.2848 42.922 34.5014 42.6552 34.5014Z" fill="white"></path><path d="M18.9902 34.5014H16.6892C16.4224 34.5014 16.2058 34.2848 16.2058 34.018C16.2058 33.7511 16.4224 33.5346 16.6892 33.5346H18.5068V31.3037C18.5068 31.0369 18.7233 30.8203 18.9902 30.8203C19.257 30.8203 19.4736 31.0369 19.4736 31.3037V34.018C19.4736 34.2848 19.257 34.5014 18.9902 34.5014Z" fill="white"></path><path d="M31.1935 31.7851H17.0551C16.0134 31.7851 15.021 31.3946 14.2601 30.6854C13.4891 29.9676 13.0429 29.0013 13.0028 27.9649C12.9351 26.2082 14.002 24.6372 15.6576 24.0552C15.9056 23.9681 16.0912 23.7907 16.1671 23.5689C17.0261 21.0605 19.3851 19.3754 22.037 19.3754C22.0732 19.3754 22.1138 19.3764 22.1583 19.3773C22.5934 19.3885 22.9429 19.3643 23.1512 18.9568C23.8797 17.5327 24.9823 16.3315 26.3402 15.4826C27.7372 14.6096 29.3498 14.1484 31.005 14.1484C32.7984 14.1484 34.525 14.6845 35.998 15.6982C36.2179 15.8495 36.2735 16.1507 36.1222 16.3706C35.9709 16.5906 35.6697 16.6461 35.4498 16.4948C34.1388 15.5923 32.6016 15.1152 31.005 15.1152C28.0422 15.1152 25.3628 16.7559 24.0121 19.3972C23.5099 20.3794 22.5455 20.3548 22.1337 20.3441C22.0984 20.3432 22.066 20.3422 22.037 20.3422C19.7984 20.3422 17.8068 21.7648 17.0817 23.8821C16.9091 24.3858 16.5069 24.7812 15.9781 24.9668C14.7251 25.4072 13.9174 26.5969 13.9686 27.9272C13.9986 28.7069 14.336 29.4349 14.9185 29.9777C15.5 30.5196 16.2585 30.8179 17.0546 30.8179H31.193C31.4598 30.8179 31.6764 31.0344 31.6764 31.3013C31.6764 31.5681 31.4598 31.7847 31.193 31.7847L31.1935 31.7851Z" fill="white"></path><path d="M39.5668 31.7879H33.4495C33.1826 31.7879 32.9661 31.5714 32.9661 31.3045C32.9661 31.0377 33.1826 30.8211 33.4495 30.8211H39.5668C41.0335 30.8211 42.4682 30.2164 43.5022 29.1621C44.5158 28.1291 45.0592 26.7804 45.0321 25.3655C45.0046 23.9207 44.41 22.5773 43.3586 21.582C42.3087 20.5886 40.9373 20.0699 39.4963 20.1221C38.8427 20.1453 38.2157 19.7881 37.9006 19.2109C37.6545 18.7604 37.3616 18.3307 37.03 17.9343C36.8589 17.7293 36.8859 17.4248 37.0904 17.2532C37.2954 17.082 37.5999 17.1091 37.7715 17.3136C38.1437 17.7583 38.4724 18.2407 38.7489 18.7469C38.8901 19.0055 39.1709 19.166 39.4615 19.1553C41.1635 19.0944 42.7834 19.7059 44.0233 20.8791C45.2646 22.0538 45.9665 23.6403 45.9989 25.3462C46.0308 27.0231 45.3893 28.6183 44.1925 29.8384C42.9777 31.0768 41.2916 31.787 39.5668 31.787V31.7879Z" fill="white"></path></g></g><defs><clipPath id="clip0_31_1574"><rect width="33" height="33" fill="white" transform="translate(13 13)"></rect></clipPath></defs></svg> 