<?xml version="1.0" encoding="UTF-8"?> <svg xmlns="http://www.w3.org/2000/svg" width="59" height="59" viewBox="0 0 59 59" fill="none"><circle cx="29.5" cy="29.5" r="29.5" fill="#00B27B"></circle><path fill-rule="evenodd" clip-rule="evenodd" d="M33.148 17.195C32.9149 17.5975 32.7813 18.0646 32.7813 18.5627C32.7813 20.0719 34.0066 21.2971 35.5157 21.2971C37.0248 21.2971 38.2501 20.0719 38.2501 18.5627C38.2501 15.8462 36.0446 13.6409 33.3282 13.6409C31.7828 13.6409 30.4026 14.3546 29.5 15.4703C28.5974 14.3546 27.2173 13.6409 25.6719 13.6409C22.9555 13.6409 20.75 15.8462 20.75 18.5627C20.75 20.0719 21.9753 21.2971 23.4844 21.2971C24.9935 21.2971 26.2188 20.0719 26.2188 18.5627C26.2188 18.0646 26.0851 17.5975 25.8521 17.195C25.7009 16.9338 25.366 16.8445 25.1049 16.9958C24.8436 17.1469 24.7543 17.4818 24.9056 17.743C25.0453 17.9842 25.125 18.2642 25.125 18.5627C25.125 19.4683 24.3898 20.2034 23.4844 20.2034C22.5789 20.2034 21.8438 19.4683 21.8438 18.5627C21.8438 16.4499 23.5591 14.7346 25.6719 14.7346C27.1126 14.7346 28.3684 15.5324 29.0219 16.7098C29.1183 16.8835 29.3013 16.9913 29.5 16.9913C29.6987 16.9913 29.8817 16.8835 29.9782 16.7098C30.6317 15.5324 31.8874 14.7346 33.3282 14.7346C35.4409 14.7346 37.1563 16.4499 37.1563 18.5627C37.1563 19.4683 36.4211 20.2034 35.5157 20.2034C34.6102 20.2034 33.875 19.4683 33.875 18.5627C33.875 18.2642 33.9548 17.9842 34.0944 17.743C34.2457 17.4818 34.1564 17.1469 33.8952 16.9958C33.6341 16.8445 33.2992 16.9338 33.148 17.195Z" fill="white"></path><path fill-rule="evenodd" clip-rule="evenodd" d="M21.515 17.8327C20.9414 17.5984 20.3138 17.469 19.6563 17.469C16.9398 17.469 14.7344 19.6744 14.7344 22.3909C14.7344 25.1074 16.9398 27.3127 19.6563 27.3127C21.1654 27.3127 22.3906 26.0876 22.3906 24.5784C22.3906 23.0692 21.1654 21.844 19.6563 21.844C19.1758 21.844 18.7243 21.9683 18.3317 22.1862C18.0678 22.3326 17.9724 22.6658 18.1189 22.9296C18.2654 23.1936 18.5985 23.289 18.8625 23.1424C19.0977 23.0119 19.3684 22.9377 19.6563 22.9377C20.5617 22.9377 21.2969 23.6728 21.2969 24.5784C21.2969 25.4839 20.5617 26.219 19.6563 26.219C17.5435 26.219 15.8281 24.5037 15.8281 22.3909C15.8281 20.278 17.5435 18.5627 19.6563 18.5627C20.1674 18.5627 20.6554 18.663 21.1014 18.8453C21.3807 18.9594 21.7945 17.9469 21.515 17.8327Z" fill="white"></path><path fill-rule="evenodd" clip-rule="evenodd" d="M37.8989 18.8453C38.3449 18.663 38.8329 18.5627 39.344 18.5627C41.4568 18.5627 43.1721 20.278 43.1721 22.3909C43.1721 24.5037 41.4568 26.219 39.344 26.219C38.4386 26.219 37.7034 25.4839 37.7034 24.5784C37.7034 23.6728 38.4386 22.9377 39.344 22.9377C39.6318 22.9377 39.9025 23.0119 40.1378 23.1424C40.4018 23.289 40.7349 23.1936 40.8814 22.9296C41.0278 22.6658 40.9325 22.3326 40.6685 22.1862C40.276 21.9683 39.8244 21.844 39.344 21.844C37.8349 21.844 36.6096 23.0692 36.6096 24.5784C36.6096 26.0876 37.8349 27.3127 39.344 27.3127C42.0604 27.3127 44.2659 25.1074 44.2659 22.3909C44.2659 19.6744 42.0604 17.469 39.344 17.469C38.6865 17.469 38.0588 17.5984 37.4853 17.8327C37.2058 17.9469 37.6195 18.9594 37.8989 18.8453Z" fill="white"></path><path fill-rule="evenodd" clip-rule="evenodd" d="M23.4846 42.0781C22.5791 42.0781 21.844 42.8133 21.844 43.7188C21.844 44.6242 22.5791 45.3594 23.4846 45.3594C24.3901 45.3594 25.1253 44.6242 25.1253 43.7188C25.1253 42.8133 24.3901 42.0781 23.4846 42.0781ZM23.4846 43.1719C23.7865 43.1719 24.0315 43.4169 24.0315 43.7188C24.0315 44.0206 23.7865 44.2656 23.4846 44.2656C23.1828 44.2656 22.9377 44.0206 22.9377 43.7188C22.9377 43.4169 23.1828 43.1719 23.4846 43.1719Z" fill="white"></path><path fill-rule="evenodd" clip-rule="evenodd" d="M19.6563 38.25C18.7508 38.25 18.0156 38.9851 18.0156 39.8906C18.0156 40.7961 18.7508 41.5313 19.6563 41.5313C20.5617 41.5313 21.2969 40.7961 21.2969 39.8906C21.2969 38.9851 20.5617 38.25 19.6563 38.25ZM19.6563 39.3438C19.9581 39.3438 20.2031 39.5888 20.2031 39.8906C20.2031 40.1925 19.9581 40.4375 19.6563 40.4375C19.3544 40.4375 19.1094 40.1925 19.1094 39.8906C19.1094 39.5888 19.3544 39.3438 19.6563 39.3438Z" fill="white"></path><path fill-rule="evenodd" clip-rule="evenodd" d="M16.375 34.4219C15.4695 34.4219 14.7344 35.157 14.7344 36.0625C14.7344 36.968 15.4695 37.7031 16.375 37.7031C17.2805 37.7031 18.0156 36.968 18.0156 36.0625C18.0156 35.157 17.2805 34.4219 16.375 34.4219ZM16.375 35.5156C16.6768 35.5156 16.9219 35.7607 16.9219 36.0625C16.9219 36.3643 16.6768 36.6094 16.375 36.6094C16.0732 36.6094 15.8281 36.3643 15.8281 36.0625C15.8281 35.7607 16.0732 35.5156 16.375 35.5156Z" fill="white"></path><path fill-rule="evenodd" clip-rule="evenodd" d="M35.5159 42.0781C34.6104 42.0781 33.8752 42.8133 33.8752 43.7188C33.8752 44.6242 34.6104 45.3594 35.5159 45.3594C36.4214 45.3594 37.1565 44.6242 37.1565 43.7188C37.1565 42.8133 36.4214 42.0781 35.5159 42.0781ZM35.5159 43.1719C35.8177 43.1719 36.0628 43.4169 36.0628 43.7188C36.0628 44.0206 35.8177 44.2656 35.5159 44.2656C35.214 44.2656 34.969 44.0206 34.969 43.7188C34.969 43.4169 35.214 43.1719 35.5159 43.1719Z" fill="white"></path><path fill-rule="evenodd" clip-rule="evenodd" d="M39.344 38.25C38.4385 38.25 37.7034 38.9851 37.7034 39.8906C37.7034 40.7961 38.4385 41.5313 39.344 41.5313C40.2495 41.5313 40.9846 40.7961 40.9846 39.8906C40.9846 38.9851 40.2495 38.25 39.344 38.25ZM39.344 39.3438C39.6458 39.3438 39.8909 39.5888 39.8909 39.8906C39.8909 40.1925 39.6458 40.4375 39.344 40.4375C39.0422 40.4375 38.7971 40.1925 38.7971 39.8906C38.7971 39.5888 39.0422 39.3438 39.344 39.3438Z" fill="white"></path><path fill-rule="evenodd" clip-rule="evenodd" d="M42.6252 34.4219C41.7198 34.4219 40.9846 35.157 40.9846 36.0625C40.9846 36.968 41.7198 37.7031 42.6252 37.7031C43.5307 37.7031 44.2659 36.968 44.2659 36.0625C44.2659 35.157 43.5307 34.4219 42.6252 34.4219ZM42.6252 35.5156C42.9271 35.5156 43.1721 35.7607 43.1721 36.0625C43.1721 36.3643 42.9271 36.6094 42.6252 36.6094C42.3234 36.6094 42.0784 36.3643 42.0784 36.0625C42.0784 35.7607 42.3234 35.5156 42.6252 35.5156Z" fill="white"></path><path fill-rule="evenodd" clip-rule="evenodd" d="M29.5002 42.0781C28.5948 42.0781 27.8596 42.8133 27.8596 43.7188C27.8596 44.6242 28.5948 45.3594 29.5002 45.3594C30.4057 45.3594 31.1409 44.6242 31.1409 43.7188C31.1409 42.8133 30.4057 42.0781 29.5002 42.0781ZM29.5002 43.1719C29.8021 43.1719 30.0471 43.4169 30.0471 43.7188C30.0471 44.0206 29.8021 44.2656 29.5002 44.2656C29.1984 44.2656 28.9534 44.0206 28.9534 43.7188C28.9534 43.4169 29.1984 43.1719 29.5002 43.1719Z" fill="white"></path><path fill-rule="evenodd" clip-rule="evenodd" d="M34.4217 26.2188C34.4217 25.3131 33.6867 24.5781 32.7813 24.5781H26.2188C25.3134 24.5781 24.5784 25.3131 24.5784 26.2188V32.7813C24.5784 33.6869 25.3134 34.4219 26.2188 34.4219H32.7813C33.6867 34.4219 34.4217 33.6869 34.4217 32.7813V26.2188ZM33.3279 26.2188L33.3284 32.7813C33.3284 33.0832 33.0829 33.3282 32.7813 33.3282H26.2188C25.9171 33.3282 25.6721 33.0832 25.6721 32.7813V26.2188C25.6721 25.9169 25.9171 25.6719 26.2188 25.6719H32.7813C33.0829 25.6719 33.3279 25.9169 33.3279 26.2188Z" fill="white"></path><path fill-rule="evenodd" clip-rule="evenodd" d="M31.6876 27.8593C31.6876 27.5573 31.4427 27.3125 31.1407 27.3125H27.8594C27.5574 27.3125 27.3125 27.5573 27.3125 27.8593V31.1406C27.3125 31.4426 27.5574 31.6874 27.8594 31.6874H31.1407C31.4427 31.6874 31.6876 31.4426 31.6876 31.1406V27.8593ZM30.5938 28.4061V30.5938H28.4064V28.4061H30.5938Z" fill="white"></path><path fill-rule="evenodd" clip-rule="evenodd" d="M15.8367 24.3944C14.5392 25.0073 13.6414 26.3284 13.6414 27.8574C13.6414 29.9702 15.3564 31.6857 17.4695 31.6857H20.7496C21.0526 31.6857 21.2976 31.4406 21.2976 31.1387C21.2976 30.8368 21.0526 30.5917 20.7496 30.5917H17.4695C15.9592 30.5917 14.7342 29.3665 14.7342 27.8574C14.7342 26.7651 15.3773 25.8214 16.3041 25.3834C16.5765 25.2544 16.1091 24.2654 15.8367 24.3944Z" fill="white"></path><path fill-rule="evenodd" clip-rule="evenodd" d="M38.2509 31.6857H41.531C43.6442 31.6857 45.3592 29.9702 45.3592 27.8574C45.3592 26.3284 44.4614 25.0073 43.1638 24.3944C42.8914 24.2654 42.424 25.2544 42.6964 25.3834C43.6232 25.8214 44.2663 26.7651 44.2663 27.8574C44.2663 29.3665 43.0413 30.5917 41.531 30.5917H38.2509C37.9479 30.5917 37.7029 30.8368 37.7029 31.1387C37.7029 31.4406 37.9479 31.6857 38.2509 31.6857Z" fill="white"></path><path fill-rule="evenodd" clip-rule="evenodd" d="M28.9529 33.875V36.0625C28.9529 36.3643 29.1979 36.6094 29.4998 36.6094C29.8016 36.6094 30.0466 36.3643 30.0466 36.0625V33.875H28.9529Z" fill="white"></path><path fill-rule="evenodd" clip-rule="evenodd" d="M28.9529 38.25V42.625H30.0466V38.25C30.0466 37.9481 29.8016 37.7031 29.4998 37.7031C29.1979 37.7031 28.9529 37.9481 28.9529 38.25Z" fill="white"></path><path fill-rule="evenodd" clip-rule="evenodd" d="M31.6876 38.7969H34.9683V42.625H36.0631V38.25C36.0631 37.948 35.8181 37.7031 35.5157 37.7031H31.6876C31.3851 37.7031 31.1401 37.9482 31.1401 38.25C31.1401 38.5518 31.3851 38.7969 31.6876 38.7969Z" fill="white"></path><path fill-rule="evenodd" clip-rule="evenodd" d="M38.2502 33.8751H42.0784V34.9688H43.1721V33.3281C43.1721 33.0261 42.9271 32.7812 42.6253 32.7812H38.2502C37.9484 32.7812 37.7034 33.0263 37.7034 33.3281C37.7034 33.6299 37.9484 33.8751 38.2502 33.8751Z" fill="white"></path><path fill-rule="evenodd" clip-rule="evenodd" d="M20.75 32.7812H16.375C16.0731 32.7812 15.8281 33.0261 15.8281 33.3281V34.9688H16.9219V33.875C16.9219 33.8751 20.75 33.8751 20.75 33.8751C21.0519 33.8751 21.2969 33.6299 21.2969 33.3281C21.2969 33.0263 21.0519 32.7812 20.75 32.7812Z" fill="white"></path><path fill-rule="evenodd" clip-rule="evenodd" d="M35.5156 33.6015V36.0625C35.5156 36.3645 35.7606 36.6094 36.063 36.6094H38.7976V38.7969H39.8912V36.0625C39.8912 35.7604 39.6462 35.5156 39.3438 35.5156H36.6092V33.6015C36.6092 33.2997 36.3642 33.0547 36.063 33.0547C35.7606 33.0547 35.5156 33.2997 35.5156 33.6015Z" fill="white"></path><path fill-rule="evenodd" clip-rule="evenodd" d="M22.3911 33.6015V35.5156H19.6566C19.3541 35.5156 19.1091 35.7604 19.1091 36.0625V38.7969H20.2027V36.6094H22.9373C23.2397 36.6094 23.4847 36.3645 23.4847 36.0625V33.6015C23.4847 33.2997 23.2397 33.0547 22.9373 33.0547C22.6361 33.0547 22.3911 33.2997 22.3911 33.6015Z" fill="white"></path><path fill-rule="evenodd" clip-rule="evenodd" d="M27.3126 37.7031H23.4844C23.182 37.7031 22.937 37.948 22.937 38.25V42.625H24.0319V38.7969H27.3126C27.615 38.7969 27.86 38.5518 27.86 38.25C27.86 37.9482 27.615 37.7031 27.3126 37.7031Z" fill="white"></path><path fill-rule="evenodd" clip-rule="evenodd" d="M25.125 28.9531H22.9375C22.6357 28.9531 22.3906 29.1981 22.3906 29.5C22.3906 29.8019 22.6357 30.0469 22.9375 30.0469H25.125V28.9531Z" fill="white"></path><path fill-rule="evenodd" clip-rule="evenodd" d="M28.9529 22.9375V25.125H30.0466V22.9375C30.0466 22.6357 29.8016 22.3906 29.4998 22.3906C29.1979 22.3906 28.9529 22.6357 28.9529 22.9375Z" fill="white"></path><path fill-rule="evenodd" clip-rule="evenodd" d="M28.9529 16.3752V20.7503C28.9529 21.0521 29.1979 21.2971 29.4998 21.2971C29.8016 21.2971 30.0466 21.0521 30.0466 20.7503V16.3752C30.0466 16.0734 29.8016 15.8284 29.4998 15.8284C29.1979 15.8284 28.9529 16.0734 28.9529 16.3752Z" fill="white"></path><path fill-rule="evenodd" clip-rule="evenodd" d="M36.0625 28.9531H33.875V30.0469H36.0625C36.3643 30.0469 36.6094 29.8019 36.6094 29.5C36.6094 29.1981 36.3643 28.9531 36.0625 28.9531Z" fill="white"></path><path fill-rule="evenodd" clip-rule="evenodd" d="M26.7654 33.8751V36.0626C26.7654 36.3644 27.0104 36.6095 27.3123 36.6095C27.6141 36.6095 27.8591 36.3644 27.8591 36.0626V33.8751H26.7654Z" fill="white"></path><path fill-rule="evenodd" clip-rule="evenodd" d="M25.125 26.7656H22.9375C22.6357 26.7656 22.3906 27.0106 22.3906 27.3125C22.3906 27.6144 22.6357 27.8594 22.9375 27.8594H25.125V26.7656Z" fill="white"></path><path fill-rule="evenodd" clip-rule="evenodd" d="M26.7654 22.9375V25.125H27.8591V22.9375C27.8591 22.6357 27.6141 22.3906 27.3123 22.3906C27.0104 22.3906 26.7654 22.6357 26.7654 22.9375Z" fill="white"></path><path fill-rule="evenodd" clip-rule="evenodd" d="M36.0625 26.7656H33.875V27.8594H36.0625C36.3643 27.8594 36.6094 27.6144 36.6094 27.3125C36.6094 27.0106 36.3643 26.7656 36.0625 26.7656Z" fill="white"></path><path fill-rule="evenodd" clip-rule="evenodd" d="M31.1404 33.8751V36.0626C31.1404 36.3644 31.3854 36.6095 31.6873 36.6095C31.9891 36.6095 32.2341 36.3644 32.2341 36.0626V33.8751H31.1404Z" fill="white"></path><path fill-rule="evenodd" clip-rule="evenodd" d="M25.125 31.1406H22.9375C22.6357 31.1406 22.3906 31.3856 22.3906 31.6875C22.3906 31.9894 22.6357 32.2344 22.9375 32.2344H25.125V31.1406Z" fill="white"></path><path fill-rule="evenodd" clip-rule="evenodd" d="M31.1404 22.9375V25.125H32.2341V22.9375C32.2341 22.6357 31.9891 22.3906 31.6873 22.3906C31.3854 22.3906 31.1404 22.6357 31.1404 22.9375Z" fill="white"></path><path fill-rule="evenodd" clip-rule="evenodd" d="M36.0625 31.1406H33.875V32.2344H36.0625C36.3643 32.2344 36.6094 31.9894 36.6094 31.6875C36.6094 31.3856 36.3643 31.1406 36.0625 31.1406Z" fill="white"></path><path d="M19.6562 44.2656C19.9583 44.2656 20.2031 44.0208 20.2031 43.7188C20.2031 43.4167 19.9583 43.1719 19.6562 43.1719C19.3542 43.1719 19.1094 43.4167 19.1094 43.7188C19.1094 44.0208 19.3542 44.2656 19.6562 44.2656Z" fill="white"></path><path d="M39.3438 44.2656C39.6458 44.2656 39.8906 44.0208 39.8906 43.7188C39.8906 43.4167 39.6458 43.1719 39.3438 43.1719C39.0417 43.1719 38.7969 43.4167 38.7969 43.7188C38.7969 44.0208 39.0417 44.2656 39.3438 44.2656Z" fill="white"></path><path d="M19.6562 16.375C19.9583 16.375 20.2031 16.1302 20.2031 15.8281C20.2031 15.5261 19.9583 15.2812 19.6562 15.2812C19.3542 15.2812 19.1094 15.5261 19.1094 15.8281C19.1094 16.1302 19.3542 16.375 19.6562 16.375Z" fill="white"></path><path d="M39.3438 16.375C39.6458 16.375 39.8906 16.1302 39.8906 15.8281C39.8906 15.5261 39.6458 15.2812 39.3438 15.2812C39.0417 15.2812 38.7969 15.5261 38.7969 15.8281C38.7969 16.1302 39.0417 16.375 39.3438 16.375Z" fill="white"></path></svg> 