<?xml version="1.0" encoding="UTF-8"?> <svg xmlns="http://www.w3.org/2000/svg" width="59" height="59" viewBox="0 0 59 59" fill="none"><circle cx="29.5" cy="29.5" r="29.5" fill="#00B27B"></circle><path d="M46.8574 33.0974V25.0901H41.6542C41.4888 24.6074 41.2917 24.1332 41.0659 23.6724L44.746 19.9925L39.0836 14.3302L35.4064 18.0074C34.9508 17.7849 34.4754 17.5888 33.9861 17.4217V12.2188H25.9787V17.4219C25.4961 17.5878 25.0217 17.7847 24.5611 18.0103L20.8812 14.3302L15.2189 19.9925L18.8989 23.6724C18.6732 24.1332 18.476 24.6076 18.3106 25.0901H13.1074V33.0974H18.3106C18.476 33.5801 18.6732 34.0543 18.8989 34.5151L15.2189 38.195L20.8812 43.8573L24.5611 40.1772C25.0217 40.403 25.4961 40.5997 25.9787 40.7656V45.9688H33.9861V40.7682C34.4646 40.6034 34.9395 40.4057 35.404 40.1774L39.0836 43.8573L44.746 38.195L41.0659 34.5151C41.2917 34.0543 41.4888 33.5799 41.6542 33.0974H46.8574ZM43.3477 38.195L39.0836 42.459L35.5914 38.9666L35.2686 39.1368C34.6439 39.4664 33.9968 39.7358 33.3455 39.9377L32.9973 40.0454V44.98H26.9675V40.0425C25.9132 39.716 25.5169 39.5698 24.3734 38.9666L20.8812 42.459L16.6173 38.195L20.1096 34.7028C19.5056 33.5576 19.3602 33.1632 19.0337 32.1087H14.0962V26.0788H19.0334C19.3571 25.0346 19.5037 24.633 20.1096 23.4848L16.6173 19.9925L20.8812 15.7285L24.3734 19.2209L24.6962 19.0507C25.3123 18.7259 25.9594 18.4573 26.6194 18.2525L26.9675 18.1448V13.2075H32.9978V18.1448L33.3455 18.2525C34.0195 18.4614 34.6675 18.729 35.2719 19.0479L35.5945 19.218L39.084 15.7285L43.3477 19.9925L39.8555 23.4848C40.3785 24.4758 40.5557 24.8647 40.9314 26.0788H45.8687V32.1087H40.9314C40.7886 32.5699 40.5639 33.3597 40.0254 34.38L39.8553 34.7028L43.3477 38.195Z" fill="white"></path><path d="M17.631 38.1106L19.9369 35.8049L20.636 36.5039L18.3301 38.8098L17.631 38.1106Z" fill="white"></path><path d="M28.1698 32.8709L29.4012 31.6396L28.7016 30.9405L27.4706 32.1719C25.7695 33.873 23.0055 33.873 21.3042 32.1719C20.4804 31.3484 20.027 30.2535 20.027 29.0886C20.027 27.9239 20.4804 26.8291 21.3042 26.0057C23.0043 24.3055 25.7703 24.3055 27.4706 26.0053L33.0666 31.602C34.4526 32.9877 36.7074 32.9877 38.0929 31.6017C39.4819 30.2131 39.4825 27.9647 38.0929 26.5757C36.7061 25.1883 34.4544 25.1883 33.0666 26.5755L31.8354 27.8069L32.5348 28.5059L33.7658 27.2748C34.2497 26.791 34.8938 26.5248 35.5798 26.5248C37.0036 26.5248 38.1452 27.6745 38.1452 29.0886C38.1452 29.7742 37.8784 30.4181 37.394 30.9026C36.3939 31.9027 34.7665 31.9029 33.7662 30.9026L28.1698 25.3064C26.0841 23.2207 22.6905 23.2209 20.6048 25.3064C18.5146 27.397 18.5144 30.7802 20.6048 32.8711C22.6926 34.9586 26.082 34.9586 28.1698 32.8709Z" fill="white"></path><path d="M39.3622 25.3063C37.2766 23.2208 33.883 23.2208 31.7973 25.3065L30.5661 26.5377L31.2653 27.2368L32.4965 26.0054C34.1965 24.3053 36.963 24.3056 38.6629 26.0054C40.3632 27.7055 40.3632 30.472 38.6629 32.172C36.963 33.8721 34.1968 33.8721 32.4965 32.172L26.9003 26.5756C25.5143 25.1897 23.2597 25.1897 21.874 26.5756C20.4883 27.9615 20.4883 30.2159 21.874 31.6019C23.2597 32.9878 25.5145 32.9878 26.9003 31.6019L28.1315 30.3704L27.4323 29.6715L26.2011 30.9027C25.201 31.9028 23.5735 31.9028 22.5731 30.9027C21.5728 29.9024 21.5728 28.2751 22.5731 27.2747C23.5735 26.2746 25.2008 26.2746 26.2011 27.2747L31.7973 32.8712C33.8843 34.9579 37.2778 34.9554 39.3622 32.8712C41.4477 30.7857 41.4477 27.3922 39.3622 25.3063Z" fill="white"></path><path d="M24.0859 34.9844L23.3867 35.6835C27.0322 39.3288 32.9321 39.329 36.5779 35.6835L35.8784 34.9844C32.6196 38.2432 27.3449 38.2436 24.0859 34.9844Z" fill="white"></path><path d="M36.578 20.5648L35.8784 19.8657L36.5776 19.1666L37.2769 19.8657L36.578 20.5648ZM37.7431 19.3995L37.0437 18.7002L37.7431 18.0011L38.4422 18.7006L37.7431 19.3995ZM38.9082 18.2342L38.209 17.5351L39.1269 16.6172L39.8265 17.3163L38.9082 18.2342Z" fill="white"></path><path d="M35.8784 23.1981C33.3875 20.7074 29.7089 20.1113 26.6404 21.4523L26.2445 20.5461C29.6444 19.0607 33.7655 19.6869 36.5779 22.4989L35.8784 23.1981ZM24.0859 23.1981L23.3867 22.4989C23.6325 22.2534 23.8937 22.0194 24.1639 21.8033L24.7815 22.5751C24.5401 22.7686 24.3061 22.9783 24.0859 23.1981ZM25.2817 22.205L24.7236 21.3886C25.0099 21.1927 25.3107 21.011 25.6172 20.8487L26.0801 21.7223C25.8065 21.8674 25.5379 22.0299 25.2817 22.205Z" fill="white"></path></svg> 