<?xml version="1.0" encoding="UTF-8"?> <svg xmlns="http://www.w3.org/2000/svg" width="35" height="35" viewBox="0 0 35 35" fill="none"><circle cx="17.5" cy="17.5" r="17" stroke="#777777"></circle><path d="M15.993 24.8067C15.993 24.7582 15.993 24.7081 15.993 24.6596V18.6305H14V16.1808H15.9964V16.0217C15.9964 15.3971 15.9964 14.7709 15.9964 14.1463C15.9946 13.6292 16.1 13.1173 16.3061 12.6429C16.4814 12.2192 16.7659 11.8494 17.1306 11.5714C17.4952 11.2933 17.9271 11.1169 18.3821 11.06C18.8512 11.0054 19.3238 10.988 19.7955 11.0081C20.1588 11.0081 20.5222 11.0531 20.8941 11.079V13.2865H20.7505C20.2886 13.2865 19.8232 13.2865 19.3665 13.3142C18.8129 13.3505 18.5015 13.6481 18.4825 14.1965C18.4548 14.8418 18.4825 15.4905 18.4721 16.1376C18.4721 16.1376 18.4721 16.1531 18.4894 16.1739H20.7003C20.5983 16.9957 20.4979 17.8053 20.3959 18.6253H18.4825C18.4825 18.6738 18.4825 18.7118 18.4825 18.7516C18.4825 20.7377 18.4825 22.7249 18.4825 24.7132C18.4825 24.7444 18.4825 24.7755 18.4825 24.8067H15.993Z" fill="black"></path></svg> 