<?xml version="1.0" encoding="UTF-8"?> <svg xmlns="http://www.w3.org/2000/svg" width="62" height="62" viewBox="0 0 62 62" fill="none"><circle cx="31" cy="31" r="31" fill="#00B27B"></circle><path d="M45.526 29.6071C44.233 28.9606 41.8086 28.9531 41.7061 28.9531C41.3986 28.9531 41.1494 29.2024 41.1494 29.5098C41.1494 29.8172 41.3986 30.0664 41.7061 30.0664C42.3316 30.0665 44.148 30.1628 45.0282 30.6029C45.1081 30.6429 45.193 30.6617 45.2766 30.6617C45.4808 30.6617 45.6774 30.5489 45.7749 30.3539C45.9125 30.0789 45.801 29.7446 45.526 29.6071Z" fill="white"></path><path d="M48.3013 37.5372L46.0024 36.8804C45.9031 36.852 45.8338 36.7601 45.8338 36.6569V35.8896C46.0208 35.76 46.1993 35.6149 46.366 35.4531C47.1743 34.6687 47.6194 33.6167 47.6194 32.4906V31.4318L47.8416 30.9873C48.0856 30.4993 48.2145 29.9529 48.2145 29.4074V26.5389C48.2145 26.2315 47.9653 25.9822 47.6579 25.9822H42.3013C40.3535 25.9822 38.7688 27.567 38.7688 29.5148V29.5479C38.7688 30.0016 38.876 30.4558 39.0789 30.8615L39.3639 31.4317V32.3409C39.3639 33.7817 40.074 35.0746 41.1495 35.8525L41.1496 36.6567C41.1496 36.7808 41.1496 36.8321 40.69 36.9635L39.5683 37.284L36.3233 36.104C36.335 35.9509 36.2833 35.7952 36.1716 35.6779L35.1347 34.5885V32.7597C35.2443 32.6694 35.3524 32.5766 35.4571 32.4785C36.7652 31.2524 37.5154 29.5214 37.5154 27.7292V26.2687C37.9104 25.4092 38.1106 24.4996 38.1106 23.5629V17.6113C38.1106 17.3039 37.8614 17.0547 37.554 17.0547H29.2215C26.2891 17.0547 23.9035 19.4404 23.9035 22.3727V23.5631C23.9035 24.4998 24.1037 25.4093 24.4987 26.2689V27.5255C24.4987 29.6063 25.4239 31.4809 26.8794 32.7168V34.5886L25.8425 35.678C25.7308 35.7953 25.6791 35.951 25.6908 36.1041L22.2659 37.3494C22.0178 37.4397 21.7872 37.5619 21.5778 37.71L21.04 37.4411C22.6409 36.7443 23.148 35.7642 23.1724 35.7155C23.2507 35.5588 23.2507 35.3743 23.1724 35.2176C22.7711 34.415 22.7225 32.944 22.6834 31.7619C22.6704 31.3684 22.6581 30.9967 22.6346 30.6657C22.4448 27.9957 20.4151 25.9822 17.9132 25.9822C15.4112 25.9822 13.3814 27.9956 13.1917 30.6657C13.1682 30.9968 13.1559 31.3685 13.1429 31.7621C13.1039 32.944 13.0552 34.415 12.6539 35.2176C12.5756 35.3742 12.5756 35.5588 12.6539 35.7154C12.6783 35.7641 13.1844 36.7422 14.7885 37.4398L13.2947 38.1867C12.4961 38.5863 12 39.389 12 40.2817V44.3941C12 44.7015 12.2492 44.9508 12.5566 44.9508C12.8641 44.9508 13.1133 44.7015 13.1133 44.3941V40.2817C13.1133 39.8133 13.3736 39.3921 13.7925 39.1826L15.6527 38.2525L16.2997 38.8674C16.7522 39.2974 17.3325 39.5122 17.9132 39.5122C18.4936 39.5122 19.0743 39.2972 19.5266 38.8674L20.1736 38.2526L20.7801 38.5559C20.4945 39.0128 20.3324 39.5487 20.3324 40.11V44.3943C20.3324 44.7017 20.5816 44.9509 20.889 44.9509C21.1964 44.9509 21.4457 44.7017 21.4457 44.3943V40.11C21.4457 39.3458 21.9282 38.6569 22.6464 38.3958L26.2573 37.0828L27.7604 39.3376C27.9526 39.6259 28.2605 39.8107 28.6053 39.8449C28.6437 39.8487 28.6819 39.8505 28.7201 39.8505C29.0242 39.8505 29.3155 39.7308 29.5333 39.5131L30.4503 38.5961V44.3944C30.4503 44.7018 30.6996 44.951 31.007 44.951C31.3144 44.951 31.5636 44.7018 31.5636 44.3944V38.5961L32.4807 39.5131C32.6983 39.7309 32.9897 39.8506 33.2939 39.8506C33.332 39.8506 33.3703 39.8488 33.4086 39.845C33.7534 39.8108 34.0614 39.6259 34.2535 39.3377L35.7568 37.0829L39.3676 38.3959C40.0857 38.6571 40.5683 39.346 40.5683 40.1101V44.3944C40.5683 44.7018 40.8175 44.9511 41.1249 44.9511C41.4323 44.9511 41.6816 44.7018 41.6816 44.3944V40.1101C41.6816 39.3362 41.3741 38.6103 40.8583 38.0735L40.9958 38.0342C41.1345 37.9946 41.3238 37.9404 41.5138 37.8472L42.935 39.2684V44.3944C42.935 44.7018 43.1842 44.9511 43.4916 44.9511C43.799 44.9511 44.0483 44.7018 44.0483 44.3944V39.2684L45.4596 37.8571C45.5346 37.8952 45.6135 37.9274 45.6964 37.9511L47.9954 38.608C48.5202 38.7579 48.8867 39.2438 48.8867 39.7896V44.3944C48.8867 44.7018 49.1359 44.9511 49.4434 44.9511C49.7508 44.9511 50 44.7018 50 44.3944V39.7896C50 38.7492 49.3015 37.823 48.3013 37.5372ZM15.571 36.554C14.5298 36.1794 14.0075 35.6799 13.7846 35.4071C13.9366 35.0098 14.0352 34.5547 14.1019 34.0742C14.4088 34.8103 14.923 35.4386 15.571 35.8869V36.554ZM18.7598 38.0605C18.2851 38.5116 17.5413 38.5116 17.0667 38.0604L16.549 37.5685C16.6364 37.4049 16.6844 37.2193 16.6844 37.0249V36.4316C17.0727 36.553 17.4855 36.6185 17.9133 36.6185C18.3406 36.6185 18.7532 36.5527 19.1421 36.432L19.1421 37.0249C19.1421 37.2193 19.19 37.4049 19.2774 37.5687L18.7598 38.0605ZM17.9135 35.5052C16.2513 35.5052 14.8991 34.1529 14.8991 32.4908C14.8991 32.1834 14.6498 31.9341 14.3424 31.9341C14.3112 31.9341 14.2808 31.9373 14.2511 31.9423C14.2527 31.8944 14.2542 31.8465 14.2559 31.7991C14.2683 31.4163 14.2802 31.0548 14.3023 30.7447C14.3734 29.7445 14.773 28.8229 15.4276 28.1494C16.0881 27.4699 16.9709 27.0957 17.9133 27.0957C18.8557 27.0957 19.7384 27.4699 20.399 28.1494C21.0536 28.8229 21.4532 29.7445 21.5243 30.7447C21.5463 31.0547 21.5583 31.4162 21.571 31.7988C21.5721 31.8317 21.5732 31.865 21.5743 31.8981C20.9687 30.9651 20.0334 30.2774 18.8249 29.8891C17.7084 29.5304 16.7481 29.5526 16.7076 29.5536C16.5619 29.5577 16.4235 29.6187 16.3224 29.7237L15.318 30.7653C15.1046 30.9866 15.111 31.339 15.3323 31.5524C15.5537 31.7657 15.9061 31.7593 16.1194 31.538L16.9551 30.6714C17.6748 30.7066 19.9902 30.9758 20.8907 32.9587C20.6641 34.4199 19.4082 35.5052 17.9135 35.5052ZM20.2553 36.5559L20.2554 35.892C20.9029 35.4462 21.4178 34.819 21.725 34.0774C21.7917 34.5567 21.8902 35.0108 22.0419 35.4073C21.8202 35.6774 21.2955 36.1814 20.2553 36.5559ZM25.6119 27.5254V26.1443C25.6119 26.0605 25.593 25.9778 25.5566 25.9023C25.1984 25.1606 25.0168 24.3735 25.0168 23.5631V22.3728C25.0168 20.0542 26.9031 18.168 29.2215 18.168H36.9973V23.5632C36.9973 24.3736 36.8157 25.1606 36.4575 25.9024C36.4211 25.9779 36.4022 26.0606 36.4022 26.1444V27.7293C36.4022 29.2368 35.7962 30.635 34.6958 31.6664C34.5584 31.7951 34.4158 31.9158 34.2684 32.0282C34.2652 32.0305 34.2621 32.0329 34.2589 32.0352C33.228 32.8179 31.9654 33.1982 30.6469 33.1128C27.8235 32.93 25.6119 30.4757 25.6119 27.5254ZM28.7461 38.7258C28.7423 38.7297 28.7333 38.7388 28.7151 38.7369C28.697 38.7351 28.6899 38.7245 28.6868 38.7199L26.9557 36.1231L27.5128 35.5378L30.139 37.3329L28.7461 38.7258ZM31.0071 36.5777L27.9927 34.5172V33.4782C28.7726 33.8998 29.646 34.1635 30.5748 34.2236C30.7215 34.2331 30.8674 34.2378 31.0128 34.2378C32.0771 34.2378 33.1015 33.9834 34.0214 33.5004V34.5172L31.0071 36.5777ZM33.3273 38.72C33.3242 38.7246 33.3171 38.7352 33.299 38.737C33.2808 38.7393 33.2719 38.7298 33.268 38.726L31.8751 37.3331L34.5013 35.5379L35.0585 36.1233L33.3273 38.72ZM43.4916 38.2504L42.2284 36.9872C42.2504 36.8871 42.2629 36.7775 42.2628 36.6566L42.2628 36.4217C42.6133 36.5367 42.9828 36.605 43.3651 36.6164C43.408 36.6178 43.4505 36.6184 43.4932 36.6184C43.9157 36.6184 44.3281 36.5546 44.7205 36.4328V36.6569C44.7205 36.7679 44.7345 36.8767 44.7607 36.9813L43.4916 38.2504ZM45.5907 34.6542C45.0008 35.2267 44.2214 35.5291 43.3985 35.5037C41.7877 35.4554 40.4772 34.0365 40.4772 32.341V31.3004C40.4772 31.2139 40.4571 31.1287 40.4184 31.0515L40.0746 30.3637C39.9486 30.1118 39.8821 29.8297 39.8821 29.548V29.5148C39.8821 28.1808 40.9674 27.0956 42.3013 27.0956H47.1012V29.4075C47.1012 29.7811 47.0129 30.1553 46.8459 30.4895L46.5649 31.0515C46.5262 31.1288 46.5061 31.2139 46.5061 31.3004V32.4907C46.5061 33.313 46.181 34.0814 45.5907 34.6542Z" fill="white"></path><path d="M47.0625 40.2656C46.7551 40.2656 46.5059 40.5149 46.5059 40.8223V44.3933C46.5059 44.7007 46.7551 44.9499 47.0625 44.9499C47.3699 44.9499 47.6191 44.7007 47.6191 44.3933V40.8223C47.6191 40.5149 47.3699 40.2656 47.0625 40.2656Z" fill="white"></path><path d="M14.9375 41C14.6301 41 14.3809 41.2492 14.3809 41.5566V44.3919C14.3809 44.6993 14.6301 44.9485 14.9375 44.9485C15.2449 44.9485 15.4941 44.6993 15.4941 44.3919V41.5566C15.4941 41.2493 15.2449 41 14.9375 41Z" fill="white"></path><path d="M35.5669 23.7624C33.4616 21.6571 29.0568 22.0596 27.2605 22.3304C26.6948 22.4156 26.2842 22.8944 26.2842 23.4688V24.7511C26.2842 25.0586 26.5334 25.3078 26.8408 25.3078C27.1482 25.3078 27.3975 25.0586 27.3975 24.7511V23.4687C27.3975 23.4498 27.4099 23.4336 27.4266 23.4311C28.144 23.323 29.5678 23.1561 31.0429 23.2545C32.7787 23.37 34.036 23.8057 34.7797 24.5496C34.9971 24.767 35.3496 24.767 35.5669 24.5496C35.7843 24.3322 35.7843 23.9797 35.5669 23.7624Z" fill="white"></path><path d="M24.46 41.4531C24.1525 41.4531 23.9033 41.7024 23.9033 42.0098V44.3905C23.9033 44.6979 24.1525 44.9471 24.46 44.9471C24.7674 44.9471 25.0166 44.6979 25.0166 44.3905V42.0098C25.0166 41.7024 24.7674 41.4531 24.46 41.4531Z" fill="white"></path><path d="M37.554 41.4531C37.2465 41.4531 36.9973 41.7024 36.9973 42.0098V44.3905C36.9973 44.6979 37.2465 44.9471 37.554 44.9471C37.8614 44.9471 38.1106 44.6979 38.1106 44.3905V42.0098C38.1106 41.7024 37.8614 41.4531 37.554 41.4531Z" fill="white"></path></svg> 