<?xml version="1.0" encoding="UTF-8"?> <svg xmlns="http://www.w3.org/2000/svg" width="35" height="35" viewBox="0 0 35 35" fill="none"><circle cx="17.5" cy="17.5" r="17" stroke="#777777"></circle><path d="M24.0115 14.0647V19.8745C23.983 20.1244 23.9633 20.3721 23.926 20.6199C23.8438 21.3066 23.5813 21.9594 23.1652 22.5119C22.4111 23.4875 21.3741 23.8931 20.1836 23.983C19.8789 24.0071 19.5741 24.0225 19.2694 24.04H14.775L14.5558 24.0159C14.0645 23.9928 13.5749 23.943 13.0891 23.8668C11.482 23.5336 10.4297 22.422 10.1381 20.7975C10.0392 20.1571 9.99593 19.5094 10.0088 18.8616C10.0088 17.6339 9.98904 16.4061 10.0088 15.1784C10.0122 14.5183 10.059 13.8592 10.1491 13.2053C10.2133 12.74 10.3692 12.2921 10.6078 11.8875C10.8464 11.483 11.163 11.1298 11.539 10.8485C12.222 10.3581 13.0357 10.0825 13.8761 10.057C14.1765 10.0351 14.4768 10.0197 14.775 10H19.2431C19.3023 10 19.3593 10.0175 19.4185 10.0219C19.8767 10.0614 20.3371 10.0723 20.7909 10.1425C21.6011 10.2588 22.3495 10.6418 22.9177 11.2311C23.4858 11.8203 23.8414 12.5821 23.9282 13.396C23.9567 13.624 23.983 13.8454 24.0115 14.0647ZM17.0134 22.7991V22.7728C17.5242 22.7728 18.0373 22.7728 18.5481 22.7728C19.2513 22.7911 19.9549 22.7478 20.6506 22.6434C21.1145 22.5718 21.5466 22.3639 21.892 22.0461C22.2375 21.7284 22.4807 21.3151 22.5908 20.8589C22.7038 20.4067 22.7561 19.9415 22.7465 19.4755C22.7618 18.057 22.7706 16.6363 22.7465 15.2157C22.7511 14.6185 22.7093 14.0218 22.6215 13.4311C22.5636 12.9528 22.3567 12.5049 22.0301 12.1508C21.7036 11.7967 21.2738 11.5543 20.8018 11.4579C20.2208 11.3333 19.6266 11.2802 19.0326 11.3001C17.8684 11.2869 16.7043 11.3001 15.5401 11.3001C14.8461 11.2758 14.1513 11.3132 13.464 11.4119C12.4028 11.6026 11.7101 12.2055 11.4338 13.2666C11.3233 13.757 11.2747 14.2594 11.2891 14.7618C11.2789 16.276 11.2789 17.7917 11.2891 19.3088C11.2935 19.7494 11.3302 20.189 11.3987 20.6243C11.442 20.9655 11.5603 21.293 11.7453 21.583C11.9303 21.873 12.1774 22.1184 12.4686 22.3014C12.9276 22.5808 13.4529 22.7322 13.9901 22.7399C15.0052 22.7728 16.0093 22.7728 17.0134 22.7991Z" fill="black"></path><path d="M20.6319 17.0266C20.6323 17.7412 20.4207 18.4398 20.0239 19.034C19.6271 19.6282 19.063 20.0914 18.4028 20.3648C17.7427 20.6382 17.0162 20.7097 16.3155 20.5701C15.6147 20.4305 14.9711 20.0861 14.4662 19.5805C13.9613 19.075 13.6177 18.431 13.4789 17.73C13.3401 17.0291 13.4125 16.3028 13.6867 15.643C13.9609 14.9831 14.4248 14.4195 15.0195 14.0235C15.6142 13.6274 16.3131 13.4167 17.0276 13.418C17.983 13.422 18.8981 13.8037 19.5733 14.4797C20.2484 15.1557 20.629 16.0712 20.6319 17.0266ZM14.6905 17.0266C14.6897 17.4875 14.8253 17.9383 15.0805 18.3222C15.3356 18.706 15.6987 19.0057 16.124 19.1834C16.5492 19.361 17.0176 19.4087 17.47 19.3205C17.9223 19.2322 18.3384 19.0119 18.6657 18.6874C18.993 18.3628 19.2168 17.9486 19.3088 17.497C19.4009 17.0454 19.3572 16.5767 19.1831 16.1499C19.009 15.7232 18.7124 15.3576 18.3308 15.0992C17.9491 14.8409 17.4994 14.7014 17.0385 14.6983C16.7314 14.6954 16.4268 14.7534 16.1422 14.8689C15.8575 14.9843 15.5986 15.155 15.3803 15.3711C15.162 15.5871 14.9887 15.8443 14.8703 16.1277C14.7519 16.4111 14.6908 16.7151 14.6905 17.0222V17.0266Z" fill="black"></path><path d="M20.7677 14.1193C20.5444 14.1193 20.3302 14.0306 20.1724 13.8727C20.0145 13.7148 19.9258 13.5007 19.9258 13.2774C19.9258 13.0541 20.0145 12.84 20.1724 12.6821C20.3302 12.5242 20.5444 12.4355 20.7677 12.4355C20.9909 12.4355 21.2051 12.5242 21.363 12.6821C21.5208 12.84 21.6095 13.0541 21.6095 13.2774C21.6095 13.5007 21.5208 13.7148 21.363 13.8727C21.2051 14.0306 20.9909 14.1193 20.7677 14.1193Z" fill="black"></path></svg> 