<?xml version="1.0" encoding="UTF-8"?> <svg xmlns="http://www.w3.org/2000/svg" width="35" height="35" viewBox="0 0 35 35" fill="none"><circle cx="17.5" cy="17.5" r="17" stroke="#777777"></circle><path d="M15.9121 24.8907V15.623H18.6707V16.8597L18.7223 16.8979C18.7304 16.8694 18.7409 16.8416 18.7537 16.8149C18.9824 16.4306 19.2973 16.1048 19.6737 15.8633C20.05 15.6217 20.4773 15.4711 20.9219 15.4232C21.6577 15.3069 22.4114 15.3938 23.1014 15.6746C23.9072 16.0091 24.3695 16.6443 24.6187 17.4568C24.8024 18.0912 24.8924 18.7491 24.8858 19.4095C24.8858 21.2366 24.8858 23.0637 24.8858 24.8885H22.015C22.015 23.4071 22.015 21.9257 22.015 20.442C22.0165 20.0179 21.9887 19.5942 21.932 19.1739C21.8467 18.5858 21.5684 17.991 20.6818 17.9304C19.7952 17.8698 19.16 18.184 18.9198 19.1133C18.8264 19.5224 18.7842 19.9416 18.7941 20.3612C18.7941 21.8726 18.7941 23.3816 18.7941 24.8885L15.9121 24.8907Z" fill="black"></path><path d="M11.2246 24.8924C11.2246 24.8341 11.2246 24.7757 11.2246 24.7173V15.627H14.1156V24.7173C14.1156 24.7757 14.1156 24.8341 14.1156 24.8924H11.2246Z" fill="black"></path><path d="M11 12.4415C11.0662 12.2228 11.1496 12.0097 11.2491 11.804C11.4393 11.485 11.7316 11.2396 12.0788 11.1076C12.4259 10.9756 12.8074 10.9647 13.1615 11.0768C13.5265 11.1901 13.8418 11.4249 14.0549 11.7422C14.268 12.0594 14.3662 12.44 14.3331 12.8208C14.3003 13.1901 14.1479 13.5386 13.8993 13.8136C13.6506 14.0886 13.3191 14.2751 12.955 14.3449C12.5229 14.4148 12.0805 14.3142 11.7212 14.0642C11.3619 13.8141 11.1138 13.4343 11.0292 13.0049C11.0292 12.9689 11.009 12.9353 11 12.9016V12.4415Z" fill="black"></path></svg> 