<?xml version="1.0" encoding="UTF-8"?> <svg xmlns="http://www.w3.org/2000/svg" width="39" height="32" viewBox="0 0 39 32" fill="none"><rect width="38.8571" height="32" rx="2" fill="white"></rect><path d="M17.1211 17.7862C17.1211 17.9147 17.189 18.0326 17.2997 18.0969L20.2139 19.779V16.2076L17.1211 14.4219V17.7862Z" fill="#0A9B6C"></path><path d="M23.6642 13.798L20.7499 12.1159C20.6392 12.0551 20.5035 12.0551 20.3928 12.1159L17.4785 13.798L20.5714 15.5873L23.6642 13.798Z" fill="#0A9B6C"></path><path d="M23.842 18.0969C23.9527 18.0326 24.0206 17.9147 24.0206 17.7862V14.4219L20.9277 16.2076V19.779L23.842 18.0969Z" fill="#0A9B6C"></path><path d="M19.1423 9.57143H20.2137V10.6429C20.2137 10.8393 20.3744 11 20.5709 11C20.7673 11 20.928 10.8393 20.928 10.6429V9.57143H21.9994C22.1959 9.57143 22.3566 9.41071 22.3566 9.21429V6.35714C22.3566 6.16072 22.1959 6 21.9994 6H19.1423C18.9459 6 18.7852 6.16072 18.7852 6.35714V9.21429C18.7852 9.41071 18.9459 9.57143 19.1423 9.57143Z" fill="black"></path><path d="M21.9994 22.4286H20.928V21.3571C20.928 21.1607 20.7673 21 20.5709 21C20.3744 21 20.2137 21.1607 20.2137 21.3571V22.4286H19.1423C18.9459 22.4286 18.7852 22.5893 18.7852 22.7857V25.6429C18.7852 25.8393 18.9459 26 19.1423 26H21.9994C22.1959 26 22.3566 25.8393 22.3566 25.6429V22.7857C22.3566 22.5893 22.1959 22.4286 21.9994 22.4286Z" fill="black"></path><path d="M16.7453 19.3185L15.0668 21.0006H10.9275C10.731 21.0006 10.5703 21.1613 10.5703 21.3578V25.6435C10.5703 25.8399 10.731 26.0006 10.9275 26.0006H15.2132C15.4096 26.0006 15.5703 25.8399 15.5703 25.6435V21.5042L17.2525 19.8256C17.5799 19.4942 17.0805 18.988 16.7453 19.3185Z" fill="black"></path><path d="M10.9275 11H15.0668L16.7453 12.6821C16.8868 12.8197 17.111 12.8198 17.2525 12.6821C17.3917 12.5429 17.3917 12.3143 17.2525 12.175L15.5703 10.4964V6.35714C15.5703 6.16072 15.4096 6 15.2132 6H10.9275C10.731 6 10.5703 6.16072 10.5703 6.35714V10.6429C10.5703 10.8393 10.731 11 10.9275 11Z" fill="black"></path><path d="M10.9275 17.7824H13.7846C13.981 17.7824 14.1417 17.6216 14.1417 17.4252V16.3538H15.6918C16.1595 16.3452 16.162 15.6486 15.6917 15.6395H14.1417V14.5681C14.1417 14.3717 13.981 14.2109 13.7846 14.2109H10.9275C10.731 14.2109 10.5703 14.3717 10.5703 14.5681V17.4252C10.5703 17.6216 10.731 17.7824 10.9275 17.7824Z" fill="black"></path><path d="M30.2146 6H25.9289C25.7325 6 25.5718 6.16072 25.5718 6.35714V10.4964L23.8896 12.175C23.7503 12.3143 23.7503 12.5429 23.8896 12.6821C24.0312 12.8197 24.2552 12.8198 24.3968 12.6821L26.0753 11H30.2146C30.411 11 30.5718 10.8393 30.5718 10.6429V6.35714C30.5718 6.16072 30.411 6 30.2146 6Z" fill="black"></path><path d="M30.2146 20.9976H26.0753L24.3968 19.3154C24.2575 19.1761 24.0289 19.1761 23.8896 19.3154C23.7503 19.4547 23.7503 19.6833 23.8896 19.8225L25.5718 21.5011V25.6404C25.5718 25.8368 25.7325 25.9976 25.9289 25.9976H30.2146C30.411 25.9976 30.5718 25.8368 30.5718 25.6404V21.3547C30.5718 21.1583 30.411 20.9976 30.2146 20.9976Z" fill="black"></path><path d="M30.2137 14.2109H27.3566C27.1601 14.2109 26.9994 14.3717 26.9994 14.5681V15.6395H25.4494C24.9817 15.6481 24.9791 16.3447 25.4494 16.3538H26.9994V17.4252C26.9994 17.6216 27.1601 17.7824 27.3566 17.7824H30.2137C30.4101 17.7824 30.5709 17.6216 30.5709 17.4252V14.5681C30.5709 14.3717 30.4101 14.2109 30.2137 14.2109Z" fill="black"></path></svg> 