<?xml version="1.0" encoding="UTF-8"?> <svg xmlns="http://www.w3.org/2000/svg" width="39" height="32" viewBox="0 0 39 32" fill="none"><rect width="38.8571" height="32" rx="2" fill="white"></rect><g clip-path="url(#clip0_1747_246)"><path d="M29.714 11.7121V8.69866C29.714 7.70171 28.9029 6.89062 27.906 6.89062H10.9506C9.95366 6.89062 9.14258 7.70171 9.14258 8.69866V11.7121H29.714ZM23.0444 9.30134H26.6604C26.9933 9.30134 27.2631 9.57118 27.2631 9.90402C27.2631 10.2369 26.9933 10.5067 26.6604 10.5067H23.0444C22.7115 10.5067 22.4417 10.2369 22.4417 9.90402C22.4417 9.57118 22.7115 9.30134 23.0444 9.30134ZM17.0176 9.30134C17.3504 9.30134 17.6203 9.57118 17.6203 9.90402C17.6203 10.2369 17.3504 10.5067 17.0176 10.5067C16.6847 10.5067 16.4149 10.2369 16.4149 9.90402C16.4149 9.57118 16.6847 9.30134 17.0176 9.30134ZM14.6069 9.30134C14.9397 9.30134 15.2095 9.57118 15.2095 9.90402C15.2095 10.2369 14.9397 10.5067 14.6069 10.5067C14.274 10.5067 14.0042 10.2369 14.0042 9.90402C14.0042 9.57118 14.274 9.30134 14.6069 9.30134ZM12.1961 9.30134C12.529 9.30134 12.7988 9.57118 12.7988 9.90402C12.7988 10.2369 12.529 10.5067 12.1961 10.5067C11.8633 10.5067 11.5935 10.2369 11.5935 9.90402C11.5935 9.57118 11.8633 9.30134 12.1961 9.30134Z" fill="black"></path><path d="M9.14258 12.9219V25.5781C9.14258 26.5751 9.95366 27.3862 10.9506 27.3862H27.906C28.9029 27.3862 29.714 26.5751 29.714 25.5781V12.9219H9.14258ZM16.1887 21.4914C16.4486 21.6994 16.4908 22.0786 16.2828 22.3385C16.0749 22.5984 15.6956 22.6406 15.4357 22.4326L12.4224 20.0219C12.1211 19.781 12.1209 19.3218 12.4224 19.0807L15.4357 16.67C15.6955 16.462 16.0749 16.5042 16.2828 16.7641C16.4908 17.024 16.4486 17.4033 16.1887 17.6112L13.7636 19.5513L16.1887 21.4914ZM21.7903 15.57L18.1742 24.0075C18.0431 24.3134 17.6889 24.4552 17.3828 24.324C17.0769 24.1929 16.9352 23.8386 17.0663 23.5327L20.6824 15.0952C20.8135 14.7893 21.1678 14.6475 21.4737 14.7786C21.7797 14.9097 21.9214 15.264 21.7903 15.57ZM26.4342 20.022L23.4208 22.4327C23.1614 22.6403 22.782 22.5988 22.5738 22.3386C22.3658 22.0787 22.4079 21.6994 22.6679 21.4915L25.093 19.5513L22.6679 17.6112C22.4079 17.4033 22.3658 17.0241 22.5738 16.7642C22.7816 16.5042 23.1609 16.4621 23.4208 16.6701L26.4342 19.0808C26.7355 19.3217 26.7357 19.7808 26.4342 20.022Z" fill="#0A9B6C"></path></g><defs><clipPath id="clip0_1747_246"><rect width="20.5714" height="20.5714" fill="white" transform="translate(9.14258 6.85156)"></rect></clipPath></defs></svg> 