<?xml version="1.0" encoding="UTF-8"?> <svg xmlns="http://www.w3.org/2000/svg" width="62" height="62" viewBox="0 0 62 62" fill="none"><circle cx="31" cy="31" r="31" fill="#00B27B"></circle><g clip-path="url(#clip0_9_220)"><path d="M33.2043 13.0009C34.9688 13.171 36.6535 13.5992 38.2214 14.2475C38.2315 14.2516 38.2416 14.2566 38.2506 14.2604C39.8743 14.9355 41.3725 15.8439 42.7016 16.9431C42.9352 17.1359 42.9682 17.4804 42.7752 17.7134C42.764 17.7273 42.7522 17.7399 42.7397 17.7514L39.9011 20.585C39.6927 20.7928 39.3564 20.7977 39.1409 20.6003C38.2725 19.9277 37.3103 19.3679 36.2756 18.9397C36.2666 18.9359 36.2578 18.9323 36.2488 18.9285C35.2409 18.514 34.1627 18.2277 33.037 18.091C32.7575 18.0571 32.553 17.8203 32.5541 17.5466H32.553V13.5407C32.553 13.238 32.7991 12.9922 33.1029 12.9922C33.1368 12.9922 33.171 12.9946 33.2043 13.0009ZM37.8014 15.2584C36.4927 14.7176 35.1009 14.34 33.6525 14.1513V17.0711C34.7 17.237 35.7104 17.5247 36.6677 17.9187C36.6764 17.9225 36.6866 17.925 36.6956 17.9302C37.6797 18.3365 38.6075 18.8574 39.4606 19.474L41.53 17.4093C40.3998 16.543 39.1571 15.8209 37.8293 15.2686C37.8189 15.265 37.8101 15.2623 37.8014 15.2584ZM29.9466 18.0934C28.8154 18.2329 27.7337 18.523 26.722 18.9411C25.6771 19.3731 24.7037 19.9432 23.8235 20.6282C23.6029 20.7991 23.2917 20.7764 23.1 20.5839L23.0986 20.585L20.2604 17.7527C20.0457 17.5386 20.0457 17.1916 20.2604 16.9775C20.2789 16.9584 20.2984 16.942 20.3197 16.9256C21.6541 15.8261 23.1544 14.9191 24.7784 14.2478C24.7885 14.2437 24.7975 14.2402 24.8076 14.2363C26.3843 13.5877 28.0766 13.1623 29.8473 12.9963C30.1484 12.9695 30.415 13.1913 30.4418 13.4918C30.4429 13.5082 30.4443 13.5246 30.4443 13.541H30.4456V17.5477C30.4456 17.8326 30.2258 18.0683 29.9466 18.0934ZM26.3071 17.9299C27.2718 17.531 28.2901 17.2395 29.3475 17.0711V14.151C27.9079 14.3386 26.5251 14.7121 25.2254 15.247C25.2161 15.2508 25.2077 15.2543 25.1986 15.2584C23.8582 15.8132 22.6064 16.5392 21.47 17.4104L23.5394 19.4754C24.3925 18.8585 25.3203 18.3376 26.3071 17.9299ZM21.6237 22.8296C20.9494 23.6989 20.3875 24.6589 19.9604 25.6876C19.539 26.7021 19.2484 27.7865 19.1086 28.9216C19.0745 29.2005 18.8371 29.4031 18.5642 29.4031H14.5485C14.245 29.4031 14 29.1586 14 28.8557C14 28.8204 14.0027 28.7873 14.009 28.7545C14.1791 26.996 14.6081 25.3149 15.2581 23.7509V23.7484C15.9348 22.1193 16.8487 20.6145 17.9586 19.278C18.1513 19.045 18.498 19.0133 18.7305 19.2058C18.7444 19.2159 18.7573 19.2285 18.7696 19.24L21.6087 22.0725C21.8168 22.28 21.8217 22.6158 21.6237 22.8296ZM18.9473 25.272C19.3564 24.289 19.8778 23.3629 20.495 22.5116L18.4267 20.4469C17.5547 21.5809 16.8263 22.8296 16.2701 24.1673C15.7281 25.4721 15.3497 26.8604 15.1605 28.3071H18.0868C18.2558 27.252 18.5475 26.2359 18.9473 25.272ZM45.0592 19.2982C46.1598 20.6285 47.0679 22.1266 47.7419 23.7492C48.3982 25.3302 48.8299 27.0291 48.9964 28.8064C49.023 29.1067 48.8007 29.3727 48.5002 29.3993C48.4835 29.4006 48.4671 29.4017 48.4518 29.4017V29.4031H44.4361C44.1489 29.4031 43.9141 29.1838 43.8889 28.9052C43.7492 27.7764 43.4599 26.6985 43.0407 25.6901H43.0393C42.6051 24.6439 42.0339 23.6721 41.3484 22.7955C41.1767 22.5754 41.1997 22.265 41.3927 22.0736L41.3911 22.0722L44.2302 19.2386C44.4448 19.0245 44.7926 19.0245 45.007 19.2386C45.0261 19.2575 45.0442 19.2777 45.0592 19.2982ZM46.7299 24.1648C46.1754 22.8299 45.4464 21.5806 44.573 20.4472L42.5037 22.5119C43.1233 23.3645 43.645 24.289 44.0524 25.2709H44.0513L44.0524 25.2734C44.4525 26.2361 44.7442 27.2522 44.9129 28.3071H47.8395C47.6503 26.8604 47.2708 25.4708 46.7299 24.1648ZM48.9913 32.1566C48.5598 36.6134 46.4598 40.5818 43.3229 43.4296C40.2011 46.2646 36.0522 47.9922 31.4997 47.9922C26.9484 47.9922 22.7998 46.2649 19.6777 43.4296C16.5277 40.5689 14.4227 36.5816 14.0038 32.1036C13.977 31.803 14.198 31.5375 14.499 31.5107C14.5154 31.5094 14.5321 31.508 14.5485 31.508V31.5058H18.5642C18.8494 31.5058 19.0843 31.7248 19.11 32.0035C19.495 35.0944 21.0129 37.8356 23.2362 39.7948C25.436 41.7346 28.3295 42.9123 31.4997 42.9123C34.6708 42.9123 37.564 41.7343 39.7644 39.7948C41.991 37.8318 43.5107 35.0854 43.8916 31.9882C43.9258 31.7095 44.1632 31.5055 44.4363 31.5066V31.5055H48.4518C48.7539 31.5055 49.0006 31.7511 49.0006 32.0538C49 32.0899 48.9973 32.1241 48.9913 32.1566ZM42.5849 42.6202C45.398 40.065 47.323 36.5535 47.8398 32.6026H44.9132C44.4068 35.7734 42.7971 38.578 40.489 40.6135C38.0931 42.7266 34.945 44.0085 31.4995 44.0085C28.0536 44.0085 24.9069 42.7266 22.511 40.6135C20.2029 38.578 18.5929 35.7734 18.0865 32.6026H15.1605C15.6773 36.5535 17.602 40.065 20.4154 42.6202C23.3412 45.2767 27.23 46.8968 31.4997 46.8968C35.77 46.8968 39.6588 45.2764 42.5849 42.6202Z" fill="white"></path><path d="M35.3158 28.9369C35.7347 29.988 35.6874 31.1094 35.2737 32.0721C34.8583 33.0333 34.0741 33.8388 33.0178 34.2583C31.9632 34.6761 30.8394 34.6293 29.8755 34.2154C28.9119 33.8005 28.1047 33.0182 27.6842 31.9655C27.2653 30.9125 27.3112 29.7914 27.7263 28.8303C28.1413 27.8675 28.9258 27.063 29.9821 26.6439C31.0368 26.2255 32.1606 26.2712 33.1242 26.6854C34.0881 27.1002 34.8953 27.8828 35.3158 28.9369ZM34.2644 31.6388C34.5701 30.9322 34.6057 30.1097 34.2986 29.34V29.3386C33.9913 28.5697 33.3998 27.9971 32.69 27.693C31.9815 27.3879 31.1576 27.3523 30.3857 27.6591C29.6138 27.9657 29.0399 28.5557 28.7353 29.2626C28.4296 29.9708 28.3937 30.7944 28.7011 31.5633C29.0084 32.3322 29.6001 32.9059 30.3086 33.2096C31.0182 33.5151 31.8434 33.5493 32.614 33.2438C33.3859 32.9376 33.9598 32.347 34.2644 31.6388Z" fill="white"></path><path d="M33.6255 27.1205L40.5692 25.7005C40.8306 25.6472 41.0846 25.6991 41.2992 25.8233C41.5084 25.9447 41.6774 26.1399 41.7704 26.3756C41.8642 26.61 41.8754 26.8659 41.8084 27.0978C41.7386 27.3349 41.5888 27.5462 41.3627 27.6881L35.312 31.4367C35.0542 31.5961 34.7165 31.5176 34.5565 31.2603C34.4841 31.1463 34.4611 31.0156 34.4789 30.8928C34.5172 30.6347 34.5224 30.3697 34.492 30.1048C34.4614 29.8466 34.3979 29.5893 34.2987 29.3411C34.2 29.0955 34.0693 28.8647 33.9115 28.6561C33.7532 28.442 33.5678 28.2531 33.3633 28.0936C33.1245 27.9061 33.0841 27.5626 33.2706 27.3245C33.3619 27.2093 33.4901 27.1396 33.626 27.1205H33.6255ZM40.7518 26.7787L34.7901 27.9982L34.7911 27.9993C34.9995 28.2782 35.1772 28.5924 35.3156 28.9394C35.4526 29.2839 35.5404 29.6336 35.5808 29.9806L40.7518 26.7787Z" fill="white"></path><path d="M33.2363 29.7634C33.4277 30.242 33.4064 30.7525 33.2185 31.19C33.0296 31.6269 32.6714 31.9931 32.1901 32.1845C31.7102 32.3742 31.1986 32.354 30.7606 32.165C30.3225 31.9777 29.9559 31.6206 29.7639 31.1405L29.7614 31.1345C29.5719 30.6565 29.5935 30.1501 29.7817 29.7145C29.9706 29.2775 30.3288 28.9114 30.8101 28.72L30.8153 28.7175C31.2949 28.5286 31.8029 28.5499 32.2396 28.7378C32.6777 28.9259 33.0446 29.2836 33.2363 29.7634ZM32.209 30.7566C32.2877 30.5742 32.2978 30.3625 32.2194 30.1649C32.1403 29.9699 31.988 29.8228 31.8051 29.744C31.6339 29.6694 31.4371 29.6568 31.2495 29.7202C31.2265 29.7317 31.2022 29.7418 31.1781 29.7492C30.999 29.8302 30.8645 29.9745 30.7907 30.1471C30.716 30.318 30.7032 30.5143 30.7669 30.7008C30.7784 30.7246 30.7887 30.7486 30.7961 30.7741C30.8787 30.9515 31.0234 31.0861 31.1948 31.1591C31.3777 31.2378 31.5896 31.2479 31.7879 31.1692C31.9834 31.091 32.1305 30.939 32.209 30.7566Z" fill="white"></path><path d="M23.485 28.8869C23.4278 29.1834 23.1385 29.3772 22.8413 29.3198C22.5444 29.2618 22.35 28.9742 22.4085 28.6775C22.4744 28.3434 22.5619 28.0051 22.6712 27.6617C22.7776 27.3251 22.9034 26.998 23.0442 26.6811C23.1673 26.4063 23.491 26.2822 23.768 26.405C24.0431 26.528 24.1675 26.8509 24.0444 27.1271C23.9165 27.412 23.806 27.7013 23.7133 27.9912C23.6234 28.2753 23.5471 28.5739 23.485 28.8869ZM26.0925 24.3441C25.8653 24.5442 25.5199 24.5229 25.3192 24.2973C25.1185 24.0717 25.1401 23.7261 25.366 23.5273C25.7622 23.1776 26.1901 22.8607 26.6473 22.5809C27.0903 22.3086 27.5677 22.0707 28.0755 21.8689C29.8741 21.1544 31.7633 21.0418 33.5207 21.4344C35.3281 21.8396 36.9966 22.7794 38.2788 24.1516C38.4841 24.3733 38.4718 24.7192 38.2506 24.9243C38.0286 25.131 37.6819 25.1179 37.4751 24.8964C36.345 23.6864 34.875 22.8571 33.279 22.5008C31.7302 22.1535 30.0644 22.2528 28.4788 22.8834C28.0372 23.0581 27.6155 23.2697 27.2182 23.5142C26.8122 23.7627 26.4365 24.04 26.0925 24.3441Z" fill="white"></path><path d="M29.0202 36.3516H33.979C34.4947 36.3516 34.9631 36.5618 35.3022 36.9001C35.6393 37.2372 35.8504 37.7043 35.8504 38.2189C35.8504 38.7305 35.6396 39.1964 35.3022 39.5349L35.3008 39.5366L35.3022 39.5377C34.9631 39.8759 34.4947 40.0848 33.979 40.0848H29.0202C28.5072 40.0848 28.0399 39.8759 27.7009 39.5377L27.6987 39.5349C27.3594 39.1967 27.1499 38.7307 27.1499 38.2189C27.1499 37.7043 27.3594 37.2372 27.6987 36.9001C27.7099 36.8889 27.7211 36.8774 27.734 36.8675C28.0695 36.5479 28.5237 36.3516 29.0202 36.3516ZM33.9785 37.4475H29.0199C28.8181 37.4475 28.6341 37.526 28.4958 37.6526C28.4892 37.66 28.4829 37.6679 28.4753 37.6739C28.3358 37.8147 28.2478 38.0075 28.2478 38.2189C28.2478 38.43 28.3339 38.6241 28.4739 38.7636C28.615 38.9027 28.8078 38.9889 29.0197 38.9889H33.9785C34.1909 38.9889 34.3837 38.9014 34.5245 38.7619L34.5256 38.7636C34.6653 38.6241 34.7517 38.43 34.7517 38.2189C34.7517 38.0075 34.664 37.8145 34.5245 37.6739C34.3837 37.535 34.1909 37.4475 33.9785 37.4475Z" fill="white"></path></g><defs><clipPath id="clip0_9_220"><rect width="35" height="35" fill="white" transform="translate(14 13)"></rect></clipPath></defs></svg> 