<?xml version="1.0" encoding="UTF-8"?> <svg xmlns="http://www.w3.org/2000/svg" width="62" height="62" viewBox="0 0 62 62" fill="none"><circle cx="31" cy="31" r="31" fill="#00B27B"></circle><mask id="mask0_9_192" style="mask-type:luminance" maskUnits="userSpaceOnUse" x="15" y="15" width="31" height="31"><path d="M15 15H46V46H15V15Z" fill="white"></path></mask><g mask="url(#mask0_9_192)"><path fill-rule="evenodd" clip-rule="evenodd" d="M15 30.5C15 39.0604 21.9396 46 30.5 46C39.0604 46 46 39.0604 46 30.5C46 26.4497 44.4457 22.7611 41.9021 20.0003C41.6756 19.7545 41.2929 19.7388 41.0471 19.9652C40.8013 20.1917 40.7856 20.5745 41.0121 20.8202C43.3579 23.3665 44.7899 26.7653 44.7899 30.5C44.7899 38.3921 38.392 44.7899 30.5 44.7899C22.608 44.7899 16.2101 38.3921 16.2101 30.5C16.2101 22.6079 22.608 16.2101 30.5 16.2101C31.0904 16.2101 31.6721 16.2459 32.2433 16.3154C32.575 16.3557 32.8767 16.1195 32.917 15.7877C32.9573 15.456 32.7211 15.1544 32.3893 15.1141C31.7699 15.0388 31.1393 15 30.5 15C21.9396 15 15 21.9396 15 30.5Z" fill="white"></path><path fill-rule="evenodd" clip-rule="evenodd" d="M22.3868 38.6081C26.8677 43.089 34.1326 43.089 38.6135 38.6081C43.0944 34.1272 43.0944 26.8622 38.6135 22.3813C34.7513 18.5191 28.8222 17.9864 24.3889 20.7807C24.1083 20.9576 24.0242 21.3285 24.2011 21.6092C24.378 21.8899 24.7489 21.974 25.0296 21.7971C28.9985 19.2955 34.3072 19.7741 37.7639 23.2309L38.1415 22.8533L37.7639 23.2309C41.7756 27.2426 41.7756 33.7468 37.7639 37.7585L38.1491 38.1436L37.7639 37.7585C33.7523 41.7702 27.248 41.7702 23.2363 37.7585L23.2363 37.7585C19.7744 34.2967 19.2995 28.9773 21.8136 25.0066C21.9911 24.7263 21.9078 24.3552 21.6275 24.1777C21.3472 24.0002 20.976 24.0835 20.7985 24.3639C17.9902 28.7992 18.5188 34.7402 22.3868 38.6081Z" fill="white"></path><path fill-rule="evenodd" clip-rule="evenodd" d="M41.3911 23.4531C41.7361 23.4531 42.0158 23.1734 42.0158 22.8284V21.0792H43.765C44.11 21.0792 44.3897 20.7995 44.3897 20.4545C44.3897 20.1094 44.11 19.8297 43.765 19.8297H41.3911C41.0461 19.8297 40.7664 20.1094 40.7664 20.4545V22.8284C40.7664 23.1734 41.0461 23.4531 41.3911 23.4531Z" fill="white"></path><path fill-rule="evenodd" clip-rule="evenodd" d="M30.5002 31.4332C29.9872 31.4332 29.5714 31.0174 29.5714 30.5045C29.5714 29.9915 29.9872 29.5757 30.5002 29.5757C31.0131 29.5757 31.429 29.9915 31.429 30.5045C31.429 31.0174 31.0131 31.4332 30.5002 31.4332ZM28.2859 30.5045C28.2859 31.7274 29.2773 32.7188 30.5002 32.7188C31.7231 32.7188 32.7145 31.7274 32.7145 30.5045C32.7145 29.2816 31.7231 28.2902 30.5002 28.2902C29.2773 28.2902 28.2859 29.2816 28.2859 30.5045Z" fill="white"></path><path fill-rule="evenodd" clip-rule="evenodd" d="M37.948 30.5055C37.948 30.839 38.171 31.1094 38.4461 31.1094H39.0603C39.3354 31.1094 39.5584 30.839 39.5584 30.5055C39.5584 30.172 39.3354 29.9016 39.0603 29.9016H38.4461C38.171 29.9016 37.948 30.172 37.948 30.5055Z" fill="white"></path><path fill-rule="evenodd" clip-rule="evenodd" d="M21.4414 30.5055C21.4414 30.839 21.6644 31.1094 21.9395 31.1094H22.5537C22.8288 31.1094 23.0518 30.839 23.0518 30.5055C23.0518 30.172 22.8288 29.9016 22.5537 29.9016H21.9395C21.6644 29.9016 21.4414 30.172 21.4414 30.5055Z" fill="white"></path><path fill-rule="evenodd" clip-rule="evenodd" d="M30.5001 23.4531C30.8337 23.4531 31.104 23.1744 31.104 22.8305V22.0627C31.104 21.7189 30.8337 21.4401 30.5001 21.4401C30.1666 21.4401 29.8962 21.7189 29.8962 22.0627V22.8305C29.8962 23.1744 30.1666 23.4531 30.5001 23.4531Z" fill="white"></path><path fill-rule="evenodd" clip-rule="evenodd" d="M30.5 39.961C30.8335 39.961 31.1039 39.6823 31.1039 39.3384V38.5706C31.1039 38.2268 30.8335 37.948 30.5 37.948C30.1665 37.948 29.8961 38.2268 29.8961 38.5706V39.3384C29.8961 39.6823 30.1665 39.961 30.5 39.961Z" fill="white"></path><path fill-rule="evenodd" clip-rule="evenodd" d="M29.7189 30.1197C29.9551 29.8835 29.9551 29.5006 29.7189 29.2644L27.3052 26.8506C27.069 26.6144 26.6861 26.6144 26.4499 26.8506C26.2137 27.0869 26.2137 27.4698 26.4499 27.706L28.8636 30.1197C29.0998 30.3559 29.4827 30.3559 29.7189 30.1197Z" fill="white"></path><path fill-rule="evenodd" clip-rule="evenodd" d="M31.2786 30.1095C31.5118 30.3593 31.8899 30.3593 32.123 30.1095L36.5652 25.35C36.7984 25.1002 36.7984 24.6951 36.5652 24.4453C36.3321 24.1955 35.954 24.1955 35.7208 24.4453L31.2786 29.2048C31.0455 29.4546 31.0455 29.8597 31.2786 30.1095Z" fill="white"></path></g></svg> 