<?xml version="1.0" encoding="UTF-8"?> <svg xmlns="http://www.w3.org/2000/svg" width="62" height="62" viewBox="0 0 62 62" fill="none"><circle cx="31" cy="31" r="31" fill="#00B27B"></circle><g clip-path="url(#clip0_9_256)"><path d="M43.4642 38.9375C41.1822 38.9414 39.258 40.6394 38.9708 42.9033H36.0991C35.7862 42.9033 35.5325 42.6497 35.5325 42.3368V38.9375H34.3994V42.3368C34.3994 43.2754 35.1604 44.0364 36.0991 44.0364H38.9708C39.2746 46.4473 41.4257 48.1898 43.8471 47.9862C46.2684 47.7829 48.0987 45.7059 47.996 43.2782C47.8934 40.8504 45.8942 38.9356 43.4642 38.9375ZM43.4642 46.8692C41.5867 46.8692 40.0649 45.3471 40.0649 43.4699C40.0649 41.5924 41.5867 40.0706 43.4642 40.0706C45.3414 40.0706 46.8635 41.5924 46.8635 43.4699C46.8615 45.3463 45.3406 46.8672 43.4642 46.8692Z" fill="white"></path><path d="M18.536 23.0729C20.8179 23.0691 22.7419 21.3708 23.0291 19.1071H25.9011C26.214 19.1071 26.4677 19.3608 26.4677 19.6737V22.5064H27.6007V19.6737C27.6007 18.735 26.8397 17.974 25.9011 17.974H23.0291C22.7253 15.5631 20.5745 13.8206 18.1528 14.0239C15.7314 14.2275 13.9012 16.3042 14.0041 18.7323C14.1068 21.16 16.106 23.0749 18.536 23.0729ZM18.536 15.1413C20.4132 15.1413 21.9353 16.663 21.9353 18.5406C21.9353 20.4178 20.4132 21.9398 18.536 21.9398C16.6584 21.9398 15.1367 20.4178 15.1367 18.5406C15.1386 16.6639 16.6593 15.1432 18.536 15.1413Z" fill="white"></path><path d="M35.5325 19.6735C35.5325 19.3606 35.7862 19.1069 36.0991 19.1069H38.9708C39.2699 21.481 41.3631 23.2136 43.7516 23.0639C46.1398 22.914 48.0002 20.9333 48.0002 18.5404C48.0002 16.1475 46.1398 14.1668 43.7516 14.0168C41.3631 13.8669 39.2699 15.5995 38.9708 17.9738H36.0991C35.1604 17.9738 34.3994 18.7349 34.3994 19.6735V22.5062H35.5325V19.6735ZM43.4642 15.1411C45.3414 15.1411 46.8635 16.6629 46.8635 18.5404C46.8635 20.4176 45.3414 21.9397 43.4642 21.9397C41.5867 21.9397 40.0649 20.4176 40.0649 18.5404C40.0668 16.6637 41.5875 15.143 43.4642 15.1411Z" fill="white"></path><path d="M26.4677 42.337C26.4677 42.6499 26.214 42.9035 25.9011 42.9035H23.0291C22.73 40.5292 20.6368 38.7966 18.2486 38.9465C15.8604 39.0965 14 41.0772 14 43.4701C14 45.863 15.8604 47.8437 18.2486 47.9936C20.6368 48.1433 22.73 46.4107 23.0291 44.0366H25.9011C26.8397 44.0366 27.6008 43.2756 27.6008 42.337V38.9712H26.4677V42.337ZM18.536 46.8694C16.6585 46.8694 15.1367 45.3473 15.1367 43.4701C15.1367 41.5926 16.6585 40.0708 18.536 40.0708C20.4132 40.0708 21.9353 41.5926 21.9353 43.4701C21.9333 45.3465 20.4124 46.8674 18.536 46.8694Z" fill="white"></path><path d="M37.7986 34.8649V26.4732C37.7986 26.2657 37.6854 26.0751 37.5034 25.9758L31.8141 22.8728C31.3071 22.5945 30.6929 22.5945 30.1859 22.8728L24.4966 25.9758C24.3146 26.0751 24.2014 26.2657 24.2014 26.4732V34.8649C24.2011 35.4868 24.5408 36.0591 25.0869 36.3571L30.1859 39.1384C30.6929 39.4164 31.3068 39.4164 31.8141 39.1384L36.9131 36.3571C37.4589 36.0591 37.7986 35.4868 37.7986 34.8649ZM30.7286 23.867C30.8976 23.7746 31.1021 23.7746 31.2714 23.867L36.0491 26.4732L31.2714 29.0794C31.1021 29.1715 30.8976 29.1715 30.7286 29.0794L25.9509 26.4732L30.7286 23.867ZM25.6297 35.3623C25.4477 35.263 25.3345 35.0721 25.3345 34.8649V27.4273L30.1859 30.0736C30.2655 30.1126 30.3485 30.1452 30.4335 30.171V37.9831L25.6297 35.3623ZM36.3703 35.3623L31.5665 37.9831V30.171C31.6515 30.1452 31.7342 30.1126 31.8141 30.0736L36.6655 27.4273V34.8649C36.6655 35.0721 36.5523 35.263 36.3703 35.3623Z" fill="white"></path><path d="M17.9694 17.4064H19.1025C19.4154 17.4064 19.669 17.6601 19.669 17.973V19.1061C19.669 19.419 19.4154 19.6726 19.1025 19.6726H17.9694C17.6565 19.6726 17.4028 19.419 17.4028 19.1061V17.973C17.4028 17.6601 17.6565 17.4064 17.9694 17.4064Z" fill="white"></path><path d="M17.9694 42.3359H19.1025C19.4154 42.3359 19.669 42.5896 19.669 42.9025V44.0356C19.669 44.3485 19.4154 44.6021 19.1025 44.6021H17.9694C17.6565 44.6021 17.4028 44.3485 17.4028 44.0356V42.9025C17.4028 42.5896 17.6565 42.3359 17.9694 42.3359Z" fill="white"></path><path d="M42.8976 42.3359H44.0307C44.3436 42.3359 44.5972 42.5896 44.5972 42.9025V44.0356C44.5972 44.3485 44.3436 44.6021 44.0307 44.6021H42.8976C42.5847 44.6021 42.3311 44.3485 42.3311 44.0356V42.9025C42.3311 42.5896 42.5847 42.3359 42.8976 42.3359Z" fill="white"></path><path d="M42.8976 17.4064H44.0307C44.3436 17.4064 44.5972 17.6601 44.5972 17.973V19.1061C44.5972 19.419 44.3436 19.6726 44.0307 19.6726H42.8976C42.5847 19.6726 42.3311 19.419 42.3311 19.1061V17.973C42.3311 17.6601 42.5847 17.4064 42.8976 17.4064Z" fill="white"></path></g><defs><clipPath id="clip0_9_256"><rect width="34" height="34" fill="white" transform="translate(14 14)"></rect></clipPath></defs></svg> 