<?xml version="1.0" encoding="UTF-8"?> <svg xmlns="http://www.w3.org/2000/svg" width="59" height="59" viewBox="0 0 59 59" fill="none"><circle cx="29.5" cy="29.5" r="29.5" fill="#00B27B"></circle><g clip-path="url(#clip0_31_1577)"><path d="M28.5 20.1083L32.6558 16.6452H38.0967V11H24.5483V16.6452H28.5V20.1083ZM25.6774 15.5161V12.129H36.9677V15.5161H32.2473L29.629 17.6981V15.5161H25.6774Z" fill="white"></path><path d="M26.8064 13.25H27.9354V14.379H26.8064V13.25Z" fill="white"></path><path d="M29.0645 13.25H33.5806V14.379H29.0645V13.25Z" fill="white"></path><path d="M34.7097 13.25H35.8387V14.379H34.7097V13.25Z" fill="white"></path><path d="M39.7366 44.872L39.2801 40.3021C41.165 40.0041 42.6129 38.372 42.6129 36.4042V29.0655H40.3548V28.2855C40.3548 27.5181 39.9331 26.829 39.255 26.4756C39.9292 25.8562 40.3548 24.9706 40.3548 23.9849V22.8558C40.3548 20.9878 38.8358 19.4688 36.9677 19.4688C35.0997 19.4688 33.5806 20.9878 33.5806 22.8558V23.9849C33.5806 25.4463 34.5126 26.6906 35.8123 27.1647L32.7824 30.1946H29.6166C29.5535 29.2535 28.9071 28.4332 27.9914 28.1713L25.6774 27.5109V26.5026C26.3685 25.8821 26.8065 24.9852 26.8065 23.9849V22.8558C26.8065 20.9878 25.2874 19.4688 23.4194 19.4688C21.5513 19.4688 20.0323 20.9878 20.0323 22.8558V23.9849C20.0323 24.9846 20.4703 25.8816 21.1613 26.5026V27.5115L18.8473 28.1719C17.8831 28.4467 17.2097 29.3398 17.2097 30.3431V32.4526H14.9516V35.8397H16.0806V44.872H11V46.001H46V44.872H39.7366ZM34.7097 35.8397V33.2509L38.7098 29.2508C38.999 28.9616 39.171 28.5732 39.2095 28.168C39.2145 28.2074 39.2258 28.2447 39.2258 28.2855V35.2752C39.2258 36.2088 38.4659 36.9687 37.5323 36.9687H33.0161V35.8397H34.7097ZM33.0161 40.3558H35.8925L36.344 44.872H33.0161V40.3558ZM37.027 40.3558H38.1505L38.602 44.872H37.4785L37.027 40.3558ZM40.3548 35.2752V30.1946H41.4839V36.4042C41.4839 37.9605 40.2176 39.2268 38.6613 39.2268H33.0161V38.0978H37.5323C39.0885 38.0978 40.3548 36.8315 40.3548 35.2752ZM34.7097 23.9849V22.8558C34.7097 21.6105 35.7224 20.5978 36.9677 20.5978C38.2131 20.5978 39.2258 21.6105 39.2258 22.8558V23.9849C39.2258 25.2302 38.2131 26.2429 36.9677 26.2429C35.7224 26.2429 34.7097 25.2302 34.7097 23.9849ZM33.2499 31.3236L37.0163 27.5572C37.1342 27.4392 37.2974 27.372 37.4639 27.372C37.8129 27.372 38.0968 27.6559 38.0968 28.0049C38.0968 28.1713 38.0295 28.3345 37.9115 28.4525L33.9114 32.4526H27.9355C27.624 32.4526 27.371 32.1996 27.371 31.8881C27.371 31.5766 27.624 31.3236 27.9355 31.3236H33.2499ZM21.1613 22.8558C21.1613 21.6105 22.174 20.5978 23.4194 20.5978C24.6647 20.5978 25.6774 21.6105 25.6774 22.8558V23.9849C25.6774 25.2302 24.6647 26.2429 23.4194 26.2429C22.174 26.2429 21.1613 25.2302 21.1613 23.9849V22.8558ZM23.4194 27.372C23.8157 27.372 24.1945 27.2998 24.5484 27.1743V27.7808C24.4084 27.9969 24.0194 28.501 23.4194 28.501C22.8193 28.501 22.4304 27.9969 22.2903 27.7808V27.1743C22.6442 27.2998 23.023 27.372 23.4194 27.372ZM18.3387 30.3431C18.3387 29.8412 18.6758 29.3952 19.1574 29.2574L21.483 28.5931C21.8104 29.0198 22.4477 29.63 23.4194 29.63C24.391 29.63 25.0283 29.0198 25.3557 28.5925L27.6813 29.2568C28.1138 29.3806 28.4154 29.7566 28.4757 30.194H27.9355C27.0019 30.194 26.2419 30.954 26.2419 31.8876C26.2419 32.0863 26.2825 32.2748 26.3459 32.4521H18.3387V30.3431ZM16.0806 33.5817H33.5806V34.7107H16.0806V33.5817ZM17.2097 38.0978H18.9032V36.9687H17.2097V35.8397H31.8871V36.9687H20.0323V38.0978H31.8871V44.872H30.5425L29.4135 42.6139H19.6833L18.5543 44.872H17.2097V38.0978ZM29.2801 44.872H19.8167L20.3812 43.7429H28.7156L29.2801 44.872Z" fill="white"></path></g><defs><clipPath id="clip0_31_1577"><rect width="35" height="35" fill="white" transform="translate(11 11)"></rect></clipPath></defs></svg> 