<?xml version="1.0" encoding="UTF-8"?> <svg xmlns="http://www.w3.org/2000/svg" width="59" height="59" viewBox="0 0 59 59" fill="none"><circle cx="29.5" cy="29.5" r="29.5" fill="#00B27B"></circle><g clip-path="url(#clip0_12_654)"><path d="M26.4419 35.3198C26.3323 35.3198 26.222 35.2822 26.1319 35.2055L23.0338 32.5674C22.9269 32.4763 22.8655 32.3433 22.8655 32.2027C22.8655 32.0625 22.9272 31.9294 23.0338 31.8383L26.1319 29.2003C26.3331 29.0287 26.6353 29.053 26.8068 29.2542C26.9781 29.4557 26.954 29.7578 26.7526 29.9291L24.0827 32.2027L26.7526 34.4764C26.954 34.6479 26.9781 34.9501 26.8068 35.1513C26.712 35.2627 26.5773 35.3198 26.4419 35.3198Z" fill="white"></path><path d="M32.5581 35.3198C32.4227 35.3198 32.288 35.2627 32.1934 35.1513C32.0219 34.9501 32.0462 34.6479 32.2474 34.4764L34.9172 32.2027L32.2474 29.9291C32.0462 29.7578 32.0219 29.4557 32.1934 29.2542C32.3647 29.053 32.6671 29.0287 32.868 29.2003L35.9662 31.8383C36.073 31.9294 36.1345 32.0625 36.1345 32.2027C36.1345 32.3433 36.073 32.4763 35.9662 32.5674L32.868 35.2055C32.778 35.2822 32.6677 35.3198 32.5581 35.3198Z" fill="white"></path><path d="M28.4034 37.305C28.3705 37.305 28.3374 37.3015 28.304 37.2945C28.0453 37.24 27.8797 36.986 27.9342 36.7273L29.8651 27.5598C29.9196 27.3012 30.1734 27.1356 30.4323 27.1901C30.6909 27.2446 30.8565 27.4984 30.802 27.7573L28.8712 36.9248C28.8236 37.1503 28.6248 37.305 28.4034 37.305Z" fill="white"></path><path d="M40.7854 42.297H18.2146C16.4422 42.297 15 40.8551 15 39.0824V19.9256C15 18.1531 16.4422 16.7109 18.2146 16.7109H40.7854C42.5578 16.7109 44 18.1531 44 19.9256V39.0824C44 40.8551 42.5578 42.297 40.7854 42.297ZM18.2146 17.6685C16.9701 17.6685 15.9575 18.6811 15.9575 19.9256V39.0824C15.9575 40.3269 16.9701 41.3395 18.2146 41.3395H40.7854C42.0299 41.3395 43.0425 40.3269 43.0425 39.0824V19.9256C43.0425 18.6811 42.0299 17.6685 40.7854 17.6685H18.2146Z" fill="white"></path><path d="M43.5212 24.3794H15.4788C15.2143 24.3794 15 24.1651 15 23.9006C15 23.6364 15.2143 23.4219 15.4788 23.4219H43.5212C43.7857 23.4219 44 23.6364 44 23.9006C44 24.1651 43.7857 24.3794 43.5212 24.3794Z" fill="white"></path><path d="M23.1802 22.085C22.345 22.085 21.665 21.405 21.665 20.5698C21.665 19.7344 22.345 19.0547 23.1802 19.0547C24.0156 19.0547 24.6953 19.7344 24.6953 20.5698C24.6953 21.405 24.0156 22.085 23.1802 22.085ZM23.1802 20.0122C22.8729 20.0122 22.6226 20.2623 22.6226 20.5698C22.6226 20.8773 22.8729 21.1274 23.1802 21.1274C23.4877 21.1274 23.7378 20.8773 23.7378 20.5698C23.7378 20.2623 23.4877 20.0122 23.1802 20.0122Z" fill="white"></path><path d="M18.5251 22.0693C17.6897 22.0693 17.01 21.3896 17.01 20.5542C17.01 19.7188 17.6897 19.0391 18.5251 19.0391C19.3606 19.0391 20.0403 19.7188 20.0403 20.5542C20.0403 21.3896 19.3606 22.0693 18.5251 22.0693ZM18.5251 19.9966C18.2179 19.9966 17.9676 20.247 17.9676 20.5542C17.9676 20.8617 18.2179 21.1118 18.5251 21.1118C18.8327 21.1118 19.0827 20.8617 19.0827 20.5542C19.0827 20.247 18.8327 19.9966 18.5251 19.9966Z" fill="white"></path><path d="M27.8354 22.1003C27.0002 22.1003 26.3206 21.4206 26.3206 20.5852C26.3206 19.75 27.0002 19.0703 27.8354 19.0703C28.6709 19.0703 29.3506 19.75 29.3506 20.5852C29.3506 21.4206 28.6709 22.1003 27.8354 22.1003ZM27.8354 20.0276C27.5282 20.0276 27.2781 20.2777 27.2781 20.5852C27.2781 20.8927 27.5282 21.1428 27.8354 21.1428C28.1429 21.1428 28.393 20.8927 28.393 20.5852C28.393 20.2777 28.1429 20.0276 27.8354 20.0276Z" fill="white"></path></g><defs><clipPath id="clip0_12_654"><rect width="29" height="29" fill="white" transform="translate(15 15)"></rect></clipPath></defs></svg> 