<?xml version="1.0" encoding="UTF-8"?> <svg xmlns="http://www.w3.org/2000/svg" width="35" height="35" viewBox="0 0 35 35" fill="none"><g clip-path="url(#clip0_1746_225)"><path d="M17.5 34.5C26.8888 34.5 34.5 26.8888 34.5 17.5C34.5 8.11116 26.8888 0.5 17.5 0.5C8.11116 0.5 0.5 8.11116 0.5 17.5C0.5 26.8888 8.11116 34.5 17.5 34.5Z" stroke="#777777"></path></g><path d="M25.9762 12.8777C25.7765 12.1435 25.191 11.5647 24.4485 11.367C23.0921 11 17.6665 11 17.6665 11C17.6665 11 12.241 11 10.8846 11.3531C10.1564 11.5506 9.55669 12.1436 9.35695 12.8777C9 14.2188 9 17 9 17C9 17 9 19.7952 9.35695 21.1223C9.5569 21.8564 10.1422 22.4352 10.8847 22.6329C12.2553 23 17.6667 23 17.6667 23C17.6667 23 23.0921 23 24.4485 22.6469C25.1911 22.4493 25.7765 21.8705 25.9764 21.1364C26.3333 19.7952 26.3333 17.0141 26.3333 17.0141C26.3333 17.0141 26.3475 14.2188 25.9762 12.8777ZM15.9391 19.5694V14.4306L20.4508 17L15.9391 19.5694Z" fill="black"></path><defs><clipPath id="clip0_1746_225"><rect width="35" height="35" fill="white"></rect></clipPath></defs></svg> 